<?xml version="1.0" encoding="utf-8"?>
<!-- Generator: Adobe Illustrator 21.0.2, SVG Export Plug-In . SVG Version: 6.00 Build 0)  -->
<svg version="1.1" xmlns="http://www.w3.org/2000/svg" xmlns:xlink="http://www.w3.org/1999/xlink" x="0px" y="0px"
	 viewBox="0 0 2295 1961" style="enable-background:new 0 0 2295 1961;" xml:space="preserve">
<style type="text/css">
	.st0{fill:#DDE9F3;}
	.st1{fill:#FAE79B;}
	.st2{fill:#4D4F5C;}
	.st3{fill:#FFFFFF;}
	.st4{fill:#E8F1F9;}
	.st5{fill:#F8D019;}
	.st6{fill:#F8CF1B;}
	.st7{fill:#F4AABD;}
	.st8{fill:#F8CF1B;stroke:#F8CF1B;stroke-width:7;stroke-miterlimit:10;}
	.st9{fill:#3C3E5D;}
	.st10{fill:#F49921;}
	.st11{fill:#66677D;}
	.st12{fill:#5B5D73;}
	.st13{fill:#E6BF1C;}
</style>
<g id="Capa_2">
</g>
<g id="Capa_1">
	<path class="st0" d="M424.2,281.3c0-31.3-26.6-56.7-59.5-56.7c-32.8,0-59.5,25.4-59.5,56.7c0,31.3,26.6,56.6,59.5,56.6
		C397.5,338,424.2,312.6,424.2,281.3z"/>
	<path class="st0" d="M2030.7,644.3c49.1,5.9,90.3-33.4,84.1-80.1c-4.2-31.8-31.2-57.5-64.6-61.5c-49-5.9-90.3,33.4-84.1,80.1
		C1970.3,614.6,1997.3,640.3,2030.7,644.3z"/>
	<path class="st0" d="M1972.5,1276.8h-146.7H1757c-38.2,0-68.3-29.8-68.3-78.2c0-46.1,35.4-78.2,73.6-78.2h63.6h0h17.5
		c86.8,0,143.1-67.2,143.1-156.3c0-98.9-65.1-156.3-143.1-156.3h-17.5h-31.8h-56.3c-38.2,0-69.2-35-69.2-78.2
		c0-43.2,31-78.2,69.2-78.2h125.7c38.2,0,69.2-35,69.2-78.2c0-43.2-31-78.2-69.2-78.2h-69.2h-162c-38.2,0-69.2-35-69.2-78.2
		c0-43.2,31-78.2,69.2-78.2h58c38.2,0,69.2-27.6,69.2-61.7c0-34.1-31-61.7-69.2-61.7h-1159c-38.2,0-69.2,27.6-69.2,61.7
		c0,34.1,31,61.7,69.2,61.7h172.4c38.2,0,69.2,35,69.2,78.2c0,43.2-31,78.2-69.2,78.2H258.8c-38.2,0-69.2,35-69.2,78.2
		c0,43.2,31,78.2,69.2,78.2h133.8c38.2,0,69.2,35,69.2,78.2c0,43.2-31,78.2-69.2,78.2H258.8c-57.6,0-126.2,57.4-126.2,156.3
		c0,89.1,65.9,156.3,126.2,156.3h0h160.3c61.7,0,118.4,64.2,118.4,156.4c0,96.8-44.4,156.3-113.1,156.3H258.8
		c-57.6,0-120.9,57.4-120.9,156.3c0,89.1,60.7,156.4,120.9,156.3h1283.5h283.4h146.7c73.6,0,189.7-40.8,189.7-234.5
		C2162.2,1327,2060.2,1276.8,1972.5,1276.8"/>
	<path class="st1" d="M1529.2,620.4c-50.3-184.2-230.3-194.2-370.1-96.3c-21.1-77.7-77-145.3-149.4-180.5
		c-57.4-27.9-125.7-35.4-186.1-14.9c-90.3,30.7-149.6,116-196.4,199.1c-46.2-42.4-116.6-52.6-176.5-34.2
		c-84,25.8-150.9,98.8-174.4,184c-21.3,77.2-8.3,207.4,56.2,262.6c30.8,26.4,66.8,30,105.5,31.9c82.5,4,561.6,8.7,784.1,1
		c59.9-2.1,121.7-4.6,175.9-30.2C1507.4,891.3,1561.1,737.2,1529.2,620.4z"/>
	<path class="st2" d="M1132.4,1513.2c-0.7-3.6-2.1-6.8-4.4-8.8c-3-2.5-6.9-2.6-10.6-2.7c-15-0.1-101.5-0.1-116.5,0
		c-15.5,0.1-30.7-1.7-46.2-0.2c-3.2,0.3-6.5,0.8-9,3.2c-3.5,3.3-4.5,9.2-5,14.6c-0.8,10.2-0.1,20.5-0.1,30.8
		c0,10.3-0.1,20.5-0.1,30.8c0.1,36,0.3,17.3,0.5,53.3c0.1,11.6,0.1,23.3,0.2,34.9c0.1,10.7-0.6,22.3,0.6,32.8
		c0.4,3.5,1.5,7.1,3.6,9.5c1.7,2,4,3.2,6.3,4c8.6,3.2,18.9,2.4,27.8,2.8c13.3,0.6,26.7,0.9,40,1c11.1,0.1,93.9,0.4,104.9-1.9
		c11.2-2.3,9.1-21.2,9.4-31.8c0.3-14.3,0-34.6,0-48.9c0-22.9,0-50.6-0.1-68.9c0-13.5-0.4-26.8-0.3-40.3
		C1133.3,1523.4,1133.3,1517.9,1132.4,1513.2z"/>
	<path class="st2" d="M1251.1,1696.1l-0.2-0.2c-1.6-1.9-4.2-2.1-6.4-2.1c-9.4-0.2-18.6,0.3-28,0.3c-33.8,0-228.4,0-262.1,0
		c-34.9,0-69-0.4-103.9,0c-5.2,0-10.3,0.1-15.5,0.4c-4.2,0.2-9.6-1-12.9,3.1c-3.2,4-2.2,10.5-2.3,15.6c-0.1,6.6-0.1,13.2,0.1,19.9
		c0.1,2.6,0.2,5.3,1.5,7.3c2.3,3.5,6.7,3.9,9.9,3.9c4.3-0.1,7.9-0.2,12.2-0.1c19.3,0.8,42.6,0.6,62.5,0.7c30,0.1,60,0.2,90,0.2
		c13.7,0,27.4,0,41.1,0c23.3,0,46.6,0,69.9,0c24.1,0,48.2,0,72.3-0.1c16.1,0,32.3-0.1,48.4-0.3c5.9-0.1,11.3-0.1,15.8-0.7
		c2.4-0.3,5.4-0.4,7.3-2.3c4.3-4.5,3.5-13.2,3.1-22.3c-0.2-6.4-0.6-11.8-1.1-18.2C1252.6,1699.4,1252.2,1697.5,1251.1,1696.1z"/>
	<path class="st3" d="M1565.4,1436.4c-1.4,37.4,10.4,104.3-52.7,112.4c-61.9,7.9-526.7,7-589.3,6.6c-75-0.5-150-1.5-224.9-3.7
		c-49.8-1.5-107.8,1.4-156.1-10c-12.7-3-25.4-7.1-35.1-14.2c-11.8-8.7-18-21.1-20.3-33.7c-5.2-28.2-4.2-58.5-3.5-88
		c0.2-9.5,0.4-18.9,0.3-28.1c-0.4-41.2-0.5-82.3-0.9-123.5c-1.2-127.4-2.1-61.1-2.7-188.4c-0.2-36.3,0.2-72.6,0.3-108.9
		c0.1-36.3-4.2-72.6,0.5-108.7c2.5-19.1,8.2-40,27.9-51.6c14.2-8.4,33-10.1,50.8-11.2c20.1-1.2,40.1-1.9,60.1-2.1
		c46.2-0.5,92.1,1.1,138.2,2.1l0.6,0c20.1,0.4,40.3,0.7,60.6,0.7c84.4-0.3,570.4-0.4,654.7,0c20.5,0.1,42.3,0.5,59.3,9.4
		c13.4,7,20.8,18.3,24.9,30.9c5.5,16.9,5.1,36.2,4.9,51.1c-0.5,47.6,1.6,94.8,1.8,142.5c0.3,64.8,0.5,162.6,0.4,243.6
		c-0.1,43.1,1.4,101.2,0.7,148.8C1565.9,1420.8,1565.6,1428.8,1565.4,1436.4"/>
	<path class="st2" d="M1566,1412.4c-87.8,6-586.1,5.3-654.4,5c-84-0.4-168-1.2-251.9-3.1c-55.8-1.2-120.8,1.1-174.8-8.2l-1.3-0.2
		c0.2-9.5,0.4-18.9,0.3-28.1c-0.4-41.2-0.5-82.3-0.9-123.5c-1.2-127.4-2.1-61.1-2.7-188.4c-0.2-36.3,0.2-72.6,0.3-108.9
		c0.1-36.3-4.2-72.6,0.5-108.7c2.5-19.1,8.2-40,27.9-51.6c14.2-8.4,33-10.1,50.8-11.2c20.1-1.2,40.1-1.9,60.1-2.1
		c46,0.4,92,1.7,138.2,2.1l0.6,0c20.1,0.4,40.3,0.7,60.6,0.7c84.4-0.3,570.4-0.4,654.7,0c20.5,0.1,42.3,0.5,59.3,9.4
		c13.4,7,20.8,18.3,24.9,30.9c5.5,16.9,5.1,36.2,4.9,51.1c-0.5,47.6,1.6,94.8,1.8,142.5c0.3,64.8,0.5,162.6,0.4,243.6
		C1565.2,1306.6,1566.7,1364.8,1566,1412.4"/>
	<path class="st3" d="M1522.9,848.5c-3.8-9.2-10.8-17.5-23.2-22.6c-15.9-6.6-36.3-6.8-55.4-6.9c-78.8-0.2-532.8-0.2-611.6,0
		c-29.4,0.1-58.5-0.5-87.6-1.1c-51.5-1-102.9-2-154.8,0.5c-16.6,0.8-34.2,2.1-47.5,8.2c-18.3,8.5-23.7,23.7-26,37.7
		c-4.4,26.4-0.3,53-0.4,79.5c-0.1,26.5-0.5,53-0.4,79.6c0.6,93.1,1.5,44.6,2.6,137.7c0.4,30.1,0.4,60.2,0.8,90.3
		c0.3,27.7-3.4,57.6,3,84.9c2.1,9.2,8,18.3,19,24.6c9,5.2,20.9,8.2,32.8,10.4c45.1,8.3,99.3,6.2,145.8,7.3c70,1.6,140,2.4,210.1,2.7
		c58.4,0.3,492.6,0.9,550.4-4.8c58.9-5.9,47.9-54.8,49.2-82.1c1.8-37-0.1-89.3-0.1-126.4c0.1-59.2-0.1-130.7-0.3-178
		c-0.2-34.8-2.1-69.3-1.7-104.1C1527.7,875,1528,860.9,1522.9,848.5"/>
	<g>
		<path class="st4" d="M870.1,1247.5c-30.8,0-56.4-0.3-80.7-1c-3-0.1-6.4-0.1-10.7-0.1c-2.9,0-6,0-9,0c-3.2,0-6.5,0-9.8,0
			c-23.8,0-50.9-0.9-71.2-11.4c-31.4-16.3-28.3-66.1-26-102.4c0.5-8.8,1.1-17.1,1-23.6c-0.2-15.5-0.2-31.2-0.3-46.4
			c-0.1-15.2-0.2-30.8-0.3-46.2c-0.5-45.5-0.8-58-1.2-69c-0.4-12-0.7-22.3-1-72.4c-0.1-18.4,0-37.2,0.1-55.3
			c0.1-8.8,0.1-17.6,0.1-26.4c0-9-0.3-18.1-0.7-27c-0.7-18-1.4-36.7,1.1-55.2c1.8-13.2,6.3-31.9,24.3-42c12-6.7,27.4-8.1,42.2-9
			c18.8-1.1,39.1-1.7,62-1.7c23.2,0,46.8,0.6,69.5,1.1c22.8,0.5,46.5,1.1,69.9,1.1c1.4,0,2.9,0,4.3,0c35-0.1,166.2-0.2,298.6-0.2
			c113.2,0,193.4,0.1,219.9,0.2c15.2,0.1,34.1,0.1,49,7.5c10.5,5.2,17.9,13.9,21.9,25.8c4.5,13,4.3,27.2,4.2,38.6l0,1.2
			c-0.2,20.4,0.3,41.1,0.7,61.1c0.3,15,0.7,30.4,0.7,45.7c0.2,44.9,0.4,119.6,0.3,182.7c0,12.6,0.2,26.8,0.3,41.8
			c0.4,30.7,0.7,62.5-0.3,88c-0.2,4-0.1,8.6,0,13.4c0.4,27.7,0.9,69.6-45.6,75.2c-38.7,4.7-273.6,5.2-372.8,5.2c0,0,0,0,0,0
			c-46.6,0-82-0.1-94.4-0.2c-24.3,0-49.1,0.2-73,0.4C919.3,1247.3,894.5,1247.5,870.1,1247.5z"/>
		<path class="st5" d="M790.1,663.1c46.4,0,92.6,2.2,139.4,2.2c1.4,0,2.9,0,4.4,0c37.3-0.1,173.7-0.2,298.6-0.2
			c98.8,0,190.4,0,219.9,0.2c16.2,0.1,33.5,0.4,47,7.1c10.6,5.3,16.4,13.7,19.7,23.2c4.4,12.7,4,27.2,3.9,38.3
			c-0.3,35.7,1.3,71.1,1.4,106.8c0.2,48.6,0.4,122,0.3,182.7c0,38,1.6,91.7,0.1,129.6c-1.1,28,8.2,78.3-41.7,84.3
			c-36.1,4.3-244.8,5.1-372.3,5.1c-45.8,0-81.2-0.1-94.3-0.2c-48.7,0-97.5,0.8-146.2,0.8c-26.9,0-53.7-0.2-80.6-1
			c-3.5-0.1-7.1-0.1-10.8-0.1c-6,0-12.3,0.1-18.8,0.1c-24.1,0-50.1-1-69.1-10.9c-36.1-18.8-22.3-88.9-22.6-122.1
			c-0.3-30.9-0.4-61.7-0.7-92.6c-0.9-95.5-1.7-45.8-2.2-141.3c-0.1-27.2,0.2-54.4,0.3-81.6c0.1-27.2-3.3-54.4,0.4-81.5
			c2-14.4,6.5-30,22.1-38.7c11.3-6.3,26.2-7.6,40.3-8.4C749.1,663.5,769.6,663.1,790.1,663.1 M790.1,654.1c-23,0-43.4,0.5-62.3,1.7
			c-15.3,0.9-31.3,2.4-44.1,9.6c-19.8,11.1-24.6,31.2-26.6,45.3c-2.6,18.9-1.8,37.7-1.1,56c0.3,8.8,0.7,17.9,0.7,26.8
			c0,8.8-0.1,17.7-0.1,26.4c-0.1,18.1-0.2,36.9-0.1,55.4c0.3,50.1,0.6,60.5,1,72.5c0.3,11,0.7,23.4,1.2,68.9
			c0.2,15.4,0.2,31.1,0.3,46.3c0.1,15.2,0.2,30.9,0.3,46.3c0.1,6.4-0.5,14.6-1,23.3c-2.3,37.6-5.6,89,28.5,106.7
			c21.2,11,48.9,11.9,73.3,11.9c3.3,0,6.6,0,9.8,0c3.1,0,6.1,0,9,0c4.2,0,7.6,0,10.6,0.1c24.3,0.7,50,1,80.8,1
			c24.4,0,49.2-0.2,73.2-0.4c23.9-0.2,48.7-0.4,73-0.4c12.4,0.1,47.7,0.2,94.3,0.2c99.3,0,334.5-0.5,373.4-5.2
			c22.2-2.7,37.1-13.6,44.3-32.4c5.8-15.1,5.5-33,5.3-47.3c-0.1-4.8-0.1-9.3,0-13.1c1-25.6,0.6-57.5,0.3-88.3
			c-0.2-15-0.3-29.2-0.3-41.7c0.1-63.2-0.1-137.9-0.3-182.7c-0.1-15.3-0.4-30.8-0.7-45.8c-0.4-20-0.9-40.6-0.7-60.9l0-1.2
			c0.1-11.2,0.3-26.4-4.4-40.1c-4.5-13-12.6-22.6-24.2-28.3c-15.8-7.9-35.3-8-51-8c-26.5-0.1-106.7-0.2-220-0.2
			c-132.4,0-263.5,0.1-298.6,0.2c-1.4,0-2.9,0-4.3,0c-23.3,0-46.9-0.6-69.8-1.1C837,654.6,813.4,654.1,790.1,654.1L790.1,654.1z"/>
	</g>
	<path class="st6" d="M1523,724c-0.5-5.8-2-22.9-3.9-28.5c-3.3-9.5-9.1-17.9-19.7-23.2c-13.5-6.7-30.8-7-47-7.1
		c-66.8-0.3-451.7-0.2-518.5,0c-69,0.2-136.6-4.6-205.5-0.5c-14.1,0.8-29,2.1-40.3,8.4c-15.5,8.7-20.1,24.3-22.1,38.7
		c-0.8,6.2-1.3,12.4-1.5,18.6C724.5,730.3,1296.9,728.1,1523,724z"/>
	<path class="st7" d="M1356.9,686.9c6.7-6.2,18.8-4.1,21.3,6c1.4,5.4-1,11.7-5.6,14.9c-4.6,3.2-11.1,3-15.3-0.5
		c-4.2-3.5-5.8-9.9-3.8-15.2C1354.3,690,1355.5,688.3,1356.9,686.9z"/>
	<path class="st7" d="M1407.4,686.9c6.7-6.2,18.8-4.1,21.3,6c1.4,5.4-1,11.7-5.6,14.9c-4.6,3.2-11.1,3-15.3-0.5
		c-4.2-3.5-5.8-9.9-3.8-15.2C1404.8,690,1406,688.3,1407.4,686.9z"/>
	<path class="st7" d="M1457.9,686.9c6.7-6.2,18.8-4.1,21.3,6c1.3,5.4-1,11.7-5.6,14.9c-4.6,3.2-11.1,3-15.3-0.5
		c-4.2-3.5-5.8-9.9-3.8-15.2C1455.3,690,1456.5,688.3,1457.9,686.9z"/>
	<path class="st8" d="M960.4,895.3l5.4,2.6c25.1-51.4,80.9-82.7,136.8-82.7c41.4,0,82.5,16.9,112,55.2
		c19.5,25.3,29.4,57.5,29.4,89.7c0,29.3-8.2,58.6-24.7,82.6c-27,39.5-75.4,63.3-123.3,63.3c-13.2,0-26.4-1.8-39.1-5.5
		c-29.3-8.6-55.2-27.5-74-51.8c-18.8-24.4-30.3-54.3-31.1-84.8c0-1.4-0.1-2.8-0.1-4.2c0-22.9,5.1-43.6,14-61.7L960.4,895.3l-5.4-2.6
		c-9.7,19.7-15.2,42.3-15.2,67c0,1.5,0,3,0.1,4.6c0.9,33.4,13.4,65.5,33.6,91.8c20.2,26.2,48.1,46.6,80.1,56c13.9,4.1,28.2,6,42.5,6
		c51.8,0,103.6-25.4,133.2-68.5c18-26.2,26.8-57.8,26.8-89.4c0-34.6-10.6-69.3-31.9-97c-31.8-41.4-76.9-59.9-121.5-59.9
		c-60.3,0-120.2,33.4-147.6,89.4L960.4,895.3z"/>
	<path class="st6" d="M1207.3,958c-1.4-4.8-5.6-7.3-9.5-9.2c-46.8-24.1-125.6-70.9-158.2-82.2c-5.8-2-11.7,3-12.4,10.4
		c-3,35.3-5.3,117-6.3,159.8c-0.3,12.9,10.2,22,20,17.2c44.5-22.1,110.9-56.8,156.9-82.8C1204.6,967.3,1209.8,966.5,1207.3,958z"/>
	<path class="st9" d="M1488.5,1179.9c-0.1-1.3-0.2-3.4-4.7-4.2c-1.3-0.2-2.7-0.3-4.2-0.4c-6.8-0.2-13.6-0.1-20.4-0.1
		c-41.4,0.1-82.4,0.3-123.9,0.2c-47.7,0-95.3,0-143,0c-32.6,0-65.2,0-97.8,0c-26.5,0-53.1,0-79.6,0c-28.9,0-57.8,0-86.7,0
		c-30.7,0-61.4,0-92.1,0c-39.7,0-79.4,0-119.1,0c-2.3,0-4.2,0.8-4.2,1.7c0.1,3.3,0.3,6.6,0.5,9.9c0.1,0.9,1.9,1.6,4.2,1.6
		c3.8,0,7.6,0,11.2,0c65.7,0.1,662.1,0.1,713.7-0.1c7,0,14,0.1,21,0.2c6.1,0,12.3,0,18.4-0.1c5,0,6.9-1.3,7.4-3
		C1489.9,1183.5,1488.6,1181,1488.5,1179.9z"/>
	<path class="st6" d="M783.7,1170.2c8-7.4,22.4-4.9,25.4,7.1c1.6,6.5-1.2,14-6.7,17.8c-5.5,3.8-13.2,3.6-18.2-0.6
		c-5-4.1-6.9-11.8-4.5-18.1C780.5,1173.8,781.9,1171.8,783.7,1170.2z"/>
	<path class="st10" d="M1884.7,1138.7c-2.6-4.9-7.2-9.4-15.4-12.1c-10.6-3.5-24.1-3.7-36.9-3.7c-52.4-0.1-354.5-0.1-406.9,0
		c-54.1,0.1-107.1-2.4-161.2-0.3c-11.1,0.4-22.7,1.1-31.6,4.4c-12.2,4.5-15.8,12.7-17.3,20.2c-2.9,14.2-0.2,28.4-0.3,42.5
		c-0.1,14.2,1.7,58,2,74.1c0.3,17.3-3,54.9,17.8,63.7c20.9,8.9,54,5.3,77.5,5.7c59.3,1.1,118.7,0.1,178,0.1
		c38.8,0.2,327.7,0.5,366.1-2.6c39.2-3.1,31.9-29.3,32.8-44c1.2-19.8-0.1-47.8,0-67.6c0-31.7-1.6-41.9-1.3-60.5
		C1887.9,1152.9,1888.1,1145.3,1884.7,1138.7z"/>
	<path class="st3" d="M1271.7,1198.2c20.6-42.2,84.5-55.3,117.1-12.9c17.6,22.9,18.6,57.2,2.2,81.1c-16.3,23.8-48.7,35.3-76.4,27.2
		c-27.7-8.2-48.7-35.4-49.4-64.3C1264.8,1217.8,1267.2,1207.3,1271.7,1198.2z"/>
	<path class="st10" d="M1383.3,1226.6c-0.6-2.2-2.6-3.3-4.3-4.2c-21.2-10.9-56.8-32-71.5-37.1c-2.6-0.9-5.3,1.4-5.6,4.7
		c-1.4,16-2.4,52.9-2.8,72.2c-0.1,5.8,4.6,10,9,7.8c20.1-10,50.1-25.7,70.9-37.4C1382.1,1230.8,1384.4,1230.4,1383.3,1226.6z"/>
	<path class="st3" d="M1828.7,1171.5c0-1.8-0.1-4.5-2.3-5.7c-0.6-0.3-1.3-0.4-2.1-0.5c-3.3-0.2-6.7-0.2-10-0.2
		c-20.4,0.2-40.6,0.3-61,0.3c-23.4,0-46.9,0-70.4-0.1c-16.1,0-32.1,0-48.2,0c-13,0-26.1,0-39.2,0c-14.2,0-28.5,0-42.7,0
		c-15.1,0-30.2,0-45.4,0c-19.5,0-39.1,0-58.6,0c-1.1,0-2.1,1-2.1,2.2c0,4.4,0.1,8.8,0.2,13.2c0,1.2,0.9,2.2,2.1,2.2
		c1.9,0,3.7,0,5.5,0c32.3,0.1,325.9,0.2,351.3-0.2c3.5,0,6.9,0.1,10.3,0.2c3,0,6.1-0.1,9.1-0.1c2.4,0,3.4-1.8,3.7-4
		C1829.4,1176.3,1828.8,1172.9,1828.7,1171.5z"/>
	<path class="st3" d="M1828.7,1225.2c0-1.8-0.1-4.5-2.3-5.7c-0.6-0.3-1.3-0.4-2.1-0.5c-3.3-0.2-6.7-0.2-10-0.2
		c-20.4,0.2-40.6,0.3-61,0.3c-23.4,0-46.9,0-70.4,0c-16.1,0-32.1,0-48.2,0c-13,0-26.1,0-39.2,0c-14.2,0-28.5,0-42.7,0
		c-15.1,0-30.2,0-45.4,0c-19.5,0-39.1,0-58.6,0c-1.1,0-2.1,1-2.1,2.2c0,4.4,0.1,8.8,0.2,13.2c0,1.2,0.9,2.2,2.1,2.2
		c1.9,0,3.7,0,5.5,0c32.3,0.1,325.9,0.2,351.3-0.2c3.5,0,6.9,0.1,10.3,0.2c3,0,6.1-0.1,9.1-0.1c2.4,0,3.4-1.8,3.7-4
		C1829.4,1230,1828.8,1226.7,1828.7,1225.2z"/>
	<path class="st3" d="M1671.4,1278.9c0-1.8-0.1-4.5-1.4-5.7l-1.2-0.5c-2-0.2-3.9-0.2-5.9-0.2c-12,0.2-23.9,0.3-35.8,0.3
		c-13.8,0-27.6,0-41.4,0c-9.4,0-18.9,0-28.3,0c-7.7,0-15.4,0-23,0c-8.4,0-16.7,0-25.1,0c-8.9,0-17.8,0-26.7,0c-11.5,0-23,0-34.5,0
		c-0.7,0-1.2,1-1.2,2.2c0,4.4,0.1,8.8,0.1,13.2c0,1.2,0.5,2.2,1.2,2.2c1.1,0,2.2,0,3.2,0c19,0.1,191.6,0.2,206.5-0.2
		c2-0.1,4.1,0.1,6.1,0.2c1.8,0,3.6-0.1,5.3-0.1c1.4,0,2-1.8,2.1-4C1671.8,1283.8,1671.4,1280.4,1671.4,1278.9z"/>
	<path class="st11" d="M1814.2,798.7c-24.4,2.9-178.4,3.2-251.6,3.1c-16.9,0-29.5-0.1-35.2-0.1c-46.4,0-93,1.1-139.4-0.1
		c-3.9-0.1-8-0.1-12.3-0.1c-16.3,0.1-35.1,0.2-48.3-6.7c-22.2-11.5-13.7-54.7-13.9-75c-0.2-19-0.2-38-0.4-56.9
		c-0.6-58.7-1-28.1-1.4-86.8c-0.1-16.7,0.1-33.5,0.2-50.2c0.1-16.7-2-33.5,0.2-50.1c1.2-8.8,4-18.5,13.5-23.8
		c7-3.9,16.1-4.7,24.7-5.2c27.1-1.6,53.9-1,80.7-0.3c15.1,0.4,30.3,0.7,45.6,0.7c41.1-0.1,277.7-0.2,318.7,0
		c10,0.1,20.6,0.2,28.9,4.4c6.5,3.2,10.1,8.4,12.1,14.2c2.7,7.8,2.5,16.7,2.4,23.6c-0.2,17.1,0.4,34.1,0.7,51.2
		c0.1,4.8,0.1,9.6,0.2,14.5c0.1,29.9,0.2,75,0.2,112.3c0,23.4,1,56.4,0,79.7C1839.2,764.2,1844.9,795,1814.2,798.7"/>
	<path class="st11" d="M1453.1,823.7c-12.9,13.9-28,25.7-44.5,35c-6.2,3.5-53.3,27.2-57,17.9c-0.5-1.4,0-2.9,0.5-4.3
		c5.6-14.5,9.4-29.7,11.4-45.2c1.5-11.8,1.8-23.8,3.1-35.7c0.2-2,0.5-4.2,1.8-5.8c1.3-1.6,3.4-2.3,5.3-3c14.2-4.3,98-19.4,101.5,3.3
		c0.3,1.7-0.1,3.5-0.6,5.1c-2.5,8.6-7.7,16.1-13.3,23C1458.7,817.5,1456,820.7,1453.1,823.7z"/>
	<path class="st12" d="M1759.6,540.5c-67,0-132.4,0-152.2,0.1c-10,0-20.6,0.2-28.9,4.3c-6.5,3.2-10.1,8.4-12.1,14.3
		c-2.7,7.8-2.5,16.7-2.4,23.6c0.2,21.9-0.8,43.7-0.9,65.7c-0.1,29.9-0.2,75-0.2,112.3c0,12.1-0.2,26.6-0.4,41.1c8,0,17.1,0,26.8,0
		c78.7,0,203.1-0.5,224.8-3.1c23.6-2.9,25.7-21.8,25.7-38.2c0-3.4-0.1-6.7-0.1-9.8c0-1.3,0-2.6,0.1-3.8c0.3-7.5,0.4-15.9,0.4-24.8
		c0-18.5-0.4-38.6-0.4-54.4c0-0.2,0-0.4,0-0.5c0-7.6,0-15.5,0-23.5c0-31.5-0.1-65-0.2-88.8c0-4.8-0.1-9.6-0.2-14.5l0,0
		C1814.6,540.5,1787,540.5,1759.6,540.5"/>
	<path class="st6" d="M1599.5,587.2c2-5.8,5.6-11,12.1-14.3c8.3-4.1,18.9-4.3,28.9-4.3c41.1-0.2,277.7-0.1,318.7,0
		c42.4,0.1,83.9-2.8,126.3-0.3c8.7,0.5,17.8,1.3,24.7,5.2c9.6,5.3,12.4,15,13.6,23.8c2.3,16.7,0.2,33.4,0.2,50.1
		c0.1,16.7,0.3,33.5,0.2,50.2c-0.3,58.7-0.8,28.1-1.3,86.9c-0.2,19-0.2,38-0.4,56.9c-0.2,20.4,8.3,63.5-13.9,75
		c-16.8,8.7-42.3,6.3-60.7,6.7c-46.4,1.3-92.9,0.1-139.4,0.1c-30.4,0.2-256.7,0.6-286.8-3c-30.7-3.7-25-34.6-25.6-51.8
		c-0.9-23.3,0.1-56.3,0-79.7c0-37.3,0.1-82.4,0.2-112.3c0.1-22,1.1-43.7,0.9-65.7C1597,603.9,1596.8,595,1599.5,587.2z"/>
	<path class="st6" d="M1982.8,945.2c12.9,13.9,28,25.7,44.5,35c6.2,3.5,53.3,27.2,57,17.9c0.5-1.4,0-2.9-0.5-4.3
		c-5.6-14.5-9.4-29.8-11.4-45.2c-1.5-11.8-1.8-23.8-3.1-35.7c-0.2-2-0.5-4.2-1.8-5.8c-1.3-1.6-3.4-2.4-5.4-3
		c-14.2-4.3-98-19.4-101.5,3.3c-0.3,1.7,0.1,3.5,0.6,5.1c2.5,8.6,7.7,16.1,13.3,23C1977.2,939,1979.9,942.1,1982.8,945.2z"/>
	<path class="st3" d="M1686.3,716.8c19.7-17.7,55.6-11.1,63.4,18c4.2,15.7-2.6,33.9-16.2,42.9c-13.6,9-32.8,8.2-45.4-1.9
		c-12.6-10.1-17.6-28.8-11.9-44.1C1678.5,725.6,1682,720.6,1686.3,716.8z"/>
	<path class="st3" d="M1839.6,716.8c19.7-17.7,55.6-11.1,63.4,18c4.2,15.7-2.6,33.9-16.2,42.9c-13.6,9-32.8,8.2-45.4-1.9
		c-12.6-10.1-17.6-28.8-11.9-44.1C1831.8,725.6,1835.3,720.6,1839.6,716.8z"/>
	<path class="st3" d="M1992.9,716.8c19.7-17.7,55.6-11.1,63.4,18c4.2,15.7-2.6,33.9-16.2,42.9c-13.6,9-32.8,8.2-45.4-1.9
		c-12.6-10.1-17.6-28.8-11.9-44.1C1985.1,725.6,1988.6,720.6,1992.9,716.8z"/>
	<path class="st6" d="M178,1564.1c15.3,39.3,43.6,73.8,73,106.8c13.9,15.6,29.1,31.7,50.4,39.3c4.3-70.5,0.5-141.1-8.1-211.3
		l-10.5-15.3c-10.9-12.4-28.5-20.3-46.7-21c-18.2-0.6-36.5,6-48.6,17.5C164.5,1502.2,167.1,1536.2,178,1564.1z M218.6,1510
		c8.3-7.7,20.8-12.1,33.3-11.7c12.4,0.4,24.5,5.7,32,13.9l7.2,10.2c5.9,46.6,8.5,93.6,5.5,140.4c-14.6-5-25-15.7-34.5-26.1
		c-20.1-21.9-39.5-44.9-50-71C204.6,1547.2,202.8,1524.6,218.6,1510z"/>
	<path class="st6" d="M273.5,1428.3l331.9,3.2c-8,86-21.4,294.2-26,310.5c-3.7,13.2-13.9,18-26.8,22.6
		c-32.8,11.8-67.5,18.5-102.3,19.9c-24.6,1-49.2,2.2-73.8,0.7c-23.4-1.4-62.6-1-75.5-25.1c-4.5-8.4-5.9-18.1-7.1-27.6
		c-6.7-53.7-9.4-108.2-12.9-162.2C278,1523,273.5,1428.3,273.5,1428.3"/>
	<path class="st6" d="M588.7,1417.1c8.5,3.2,18.2,8.3,16.6,15.4c-1.8,8-14.3,9-20.5,10.4c-9.6,2.1-19.4,3.9-29.1,5.2
		c-26.6,3.7-53.4,3.4-80.1,5c-27.3,1.7-54.6,3.2-81.9,3c-19.1-0.1-38.3-1.1-57.3-3.6c-16.7-2.2-35.9-3.7-51-11.2
		c-8-4-18.5-12.8-6.5-18.5c9.7-4.5,21.7-6.6,32.1-9.2c22.1-5.4,44.6-9.1,67.3-11c34.5-2.9,69.4-3,104.1-0.9
		c19.9,1.2,39.8,2.1,59.6,4.1c12.5,1.3,25,3.7,36.9,7.8C581.1,1414.4,584.8,1415.6,588.7,1417.1"/>
	<path class="st13" d="M575.7,1419.1c7.7,2,16.5,5.2,15,9.9c-1.7,5.2-13.1,6-18.8,7c-8.8,1.5-17.7,2.7-26.6,3.7
		c-24.3,2.7-48.7,2.8-73.1,4.1c-24.9,1.4-49.8,2.7-74.7,2.8c-17.4,0.1-34.9-0.4-52.2-1.7c-15.2-1.2-32.7-2.1-46.4-6.8
		c-7.2-2.5-16.8-8.2-5.7-12c8.9-3.1,19.8-4.5,29.3-6.3c20.2-3.8,40.8-6.4,61.5-7.9c31.5-2.3,63.4-2.7,94.9-1.7
		c18.1,0.6,36.3,1,54.3,2.1c11.4,0.7,22.8,2.2,33.6,4.7C568.7,1417.5,572.1,1418.2,575.7,1419.1"/>
	<path class="st9" d="M430.9,1426c46.9,0.7,95.2,2.3,141.7,9.9l-0.8,0.1c-8.8,1.5-17.7,2.7-26.6,3.7c-24.3,2.7-48.7,2.8-73.1,4.1
		c-24.9,1.4-49.8,2.7-74.7,2.8c-17.4,0.1-34.9-0.4-52.2-1.7c-15.2-1.2-32.7-2.1-46.4-6.8c-1.6-0.6-3.3-1.3-4.9-2.1
		C339.2,1428.9,385,1425.3,430.9,1426"/>
	<path class="st1" d="M400.9,1120.4h-29.6c-5.3,15.8-8.9,32.1-9.7,49.4c-1.5,33.3,13.1,62.3,29.5,90.9
		c14.7,25.5,31.6,38.4,38.8,66.9c5.4,21.4,2.7,48.6-6,72.8c3.9-0.1,7.7-0.1,11.6-0.1c8.9,0,17.7,0.2,26.6,0.5
		c3.6-2.5,6.6-4.7,8.8-6.6c4.5-3.6,8.8-7.5,12.9-11.6c0-0.5,0-0.9,0-1.4c0-1.2,0-2.3,0-3.5c-0.4-38-0.5-76-0.8-114
		c-8.4-7.6-17.7-14.9-26.6-22.8C422.4,1210.8,407.7,1166.5,400.9,1120.4"/>
	<path class="st1" d="M395.7,1065.2c-9.4,18.2-18.1,36.3-24.4,55.2h29.6C398.2,1102,396.7,1083.4,395.7,1065.2"/>
	<path class="st1" d="M483,1263.7c0.3,38,0.4,76,0.8,114c0,1.1,0,2.3,0,3.5c0,0.5,0,0.9,0,1.4c12.1-12.4,21.8-27,26.4-43.5
		c7.7-27.4-0.1-46.1-14.1-62.1C492.2,1272.4,487.8,1268,483,1263.7"/>
	<path class="st1" d="M435.5,1400.3c-3.9,0-7.7,0-11.6,0.1c-1.2,3.3-2.5,6.5-3.9,9.6c8.9-0.3,17.8-0.4,26.7-0.4c0.4,0,0.8,0,1.1,0
		c5.3-3,10.1-6.1,14.2-8.9C453.3,1400.5,444.4,1400.3,435.5,1400.3"/>
	<path class="st1" d="M446.8,1409.7c-8.9,0-17.8,0.1-26.7,0.4c-2,4.6-4.3,9.1-6.8,13.3c11.9-2.3,24.2-7.8,34.6-13.7
		C447.5,1409.7,447.2,1409.7,446.8,1409.7"/>
</g>
</svg>
