<?xml version="1.0" encoding="utf-8"?>
<!-- Generator: Adobe Illustrator 21.0.2, SVG Export Plug-In . SVG Version: 6.00 Build 0)  -->
<svg version="1.1" xmlns="http://www.w3.org/2000/svg" xmlns:xlink="http://www.w3.org/1999/xlink" x="0px" y="0px"
	 viewBox="0 0 2295 1961" style="enable-background:new 0 0 2295 1961;" xml:space="preserve">
<style type="text/css">
	.st0{opacity:0.16;}
	.st1{fill:#DDE9F3;}
	.st2{fill:#3C3E5D;}
	.st3{fill:#FFFFFF;}
	.st4{fill:#E8F1F9;}
	.st5{fill:#F8D019;}
	.st6{fill:#F8CF1B;}
	.st7{fill:#F8CF1B;stroke:#F8CF1B;stroke-width:7;stroke-miterlimit:10;}
	.st8{fill:#FFEEA4;}
</style>
<g id="Capa_2">
</g>
<g id="Capa_1">
	<g class="st0">
		<path class="st1" d="M424.3,281.3c0-31.3-26.6-56.7-59.5-56.7c-32.8,0-59.5,25.4-59.5,56.7c0,31.3,26.6,56.6,59.5,56.6
			C397.6,338,424.3,312.6,424.3,281.3z"/>
		<path class="st1" d="M2030.8,644.3c49.1,5.9,90.3-33.4,84.1-80.1c-4.2-31.8-31.2-57.5-64.6-61.5c-49-5.9-90.3,33.4-84.1,80.1
			C1970.4,614.6,1997.4,640.3,2030.8,644.3z"/>
		<path class="st1" d="M1972.6,1276.8h-146.7h-68.8c-38.2,0-68.3-29.8-68.3-78.2c0-46.1,35.4-78.2,73.6-78.2h63.6h0h17.5
			c86.8,0,143.1-67.2,143.1-156.3c0-98.9-65.1-156.3-143.1-156.3h-17.5H1794h-56.3c-38.2,0-69.2-35-69.2-78.2
			c0-43.2,31-78.2,69.2-78.2h125.7c38.2,0,69.2-35,69.2-78.2c0-43.2-31-78.2-69.2-78.2h-69.2h-162c-38.2,0-69.2-35-69.2-78.2
			c0-43.2,31-78.2,69.2-78.2h58c38.2,0,69.2-27.6,69.2-61.7c0-34.1-31-61.7-69.2-61.7h-1159c-38.2,0-69.2,27.6-69.2,61.7
			c0,34.1,31,61.7,69.2,61.7h172.4c38.2,0,69.2,35,69.2,78.2c0,43.2-31,78.2-69.2,78.2H258.9c-38.2,0-69.2,35-69.2,78.2
			c0,43.2,31,78.2,69.2,78.2h133.8c38.2,0,69.2,35,69.2,78.2c0,43.2-31,78.2-69.2,78.2H258.9c-57.6,0-126.2,57.4-126.2,156.3
			c0,89.1,65.9,156.3,126.2,156.3h0h160.3c61.7,0,118.4,64.2,118.4,156.4c0,96.8-44.4,156.3-113.1,156.3H258.9
			c-57.6,0-120.9,57.4-120.9,156.3c0,89.1,60.7,156.4,120.9,156.3h1283.5h283.4h146.7c73.6,0,189.7-40.8,189.7-234.5
			C2162.3,1327,2060.3,1276.8,1972.6,1276.8"/>
	</g>
	<path class="st2" d="M1132.4,1513.2c-0.7-3.6-2.1-6.8-4.4-8.8c-3-2.5-6.9-2.6-10.6-2.7c-15-0.1-101.5-0.1-116.5,0
		c-15.5,0.1-30.7-1.7-46.2-0.2c-3.2,0.3-6.5,0.8-9,3.2c-3.5,3.3-4.5,9.2-5,14.6c-0.8,10.2-0.1,20.5-0.1,30.8
		c0,10.3-0.1,20.5-0.1,30.8c0.1,36,0.3,17.3,0.5,53.3c0.1,11.6,0.1,23.3,0.2,34.9c0.1,10.7-0.6,22.3,0.6,32.8
		c0.4,3.5,1.5,7.1,3.6,9.5c1.7,2,4,3.2,6.3,4c8.6,3.2,18.9,2.4,27.8,2.8c13.3,0.6,26.7,0.9,40,1c11.1,0.1,93.9,0.4,104.9-1.9
		c11.2-2.3,9.1-21.2,9.4-31.8c0.3-14.3,0-34.6,0-48.9c0-22.9,0-50.6-0.1-68.9c0-13.5-0.4-26.8-0.3-40.3
		C1133.3,1523.4,1133.3,1517.9,1132.4,1513.2z"/>
	<path class="st2" d="M1251.1,1696.1l-0.2-0.2c-1.6-1.9-4.2-2.1-6.4-2.1c-9.4-0.2-18.6,0.3-28,0.3c-33.8,0-228.4,0-262.1,0
		c-34.9,0-69-0.4-103.9,0c-5.2,0-10.3,0.1-15.5,0.4c-4.2,0.2-9.6-1-12.9,3.1c-3.2,4-2.2,10.5-2.3,15.6c-0.1,6.6-0.1,13.2,0.1,19.9
		c0.1,2.6,0.2,5.3,1.5,7.3c2.3,3.5,6.7,3.9,9.9,3.9c4.3-0.1,7.9-0.2,12.2-0.1c19.3,0.8,42.6,0.6,62.5,0.7c30,0.1,60,0.2,90,0.2
		c13.7,0,27.4,0,41.1,0c23.3,0,46.6,0,69.9,0c24.1,0,48.2,0,72.3-0.1c16.1,0,32.3-0.1,48.4-0.3c5.9-0.1,11.3-0.1,15.8-0.7
		c2.4-0.3,5.4-0.4,7.3-2.3c4.3-4.5,3.5-13.2,3.1-22.3c-0.2-6.4-0.6-11.8-1.1-18.2C1252.6,1699.4,1252.2,1697.5,1251.1,1696.1z"/>
	<path class="st2" d="M1506.3,1537H531.9c-29.2,0-53-23.8-53-53V836.1c0-29.2,23.9-53,53-53h974.4c29.2,0,59,23.8,59,53V1484
		C1565.3,1513.2,1535.4,1537,1506.3,1537z"/>
	<path class="st2" d="M1565.9,1412.4h-1087c0-8.1,0-23.8,0-53V836.1c0-29.2,23.9-53,53-53H1513c29.2,0,53,23.8,53,53v523.2
		C1566,1388.5,1566,1388.5,1565.9,1412.4z"/>
	<path class="st3" d="M1474.2,1412.4H567.8c-29.2,0-53-23.8-53-53V873.2c0-29.2,23.8-53,53-53h906.4c29.2,0,53,23.8,53,53v486.2
		C1527.2,1388.5,1503.4,1412.4,1474.2,1412.4z"/>
	<g>
		<path class="st4" d="M870.1,1247.5c-30.8,0-56.4-0.3-80.7-1c-3-0.1-6.4-0.1-10.7-0.1c-2.9,0-6,0-9,0c-3.2,0-6.5,0-9.8,0
			c-23.8,0-50.9-0.9-71.2-11.4c-31.4-16.3-28.3-66.1-26-102.4c0.5-8.8,1.1-17.1,1-23.6c-0.2-15.5-0.2-31.2-0.3-46.4
			c-0.1-15.2-0.2-30.8-0.3-46.2c-0.5-45.5-0.8-58-1.2-69c-0.4-12-0.7-22.3-1-72.4c-0.1-18.4,0-37.2,0.1-55.3
			c0.1-8.8,0.1-17.6,0.1-26.4c0-9-0.3-18.1-0.7-27c-0.7-18-1.4-36.7,1.1-55.2c1.8-13.2,6.3-31.9,24.3-42c12-6.7,27.4-8.1,42.2-9
			c18.8-1.1,39.1-1.7,62-1.7c23.2,0,46.8,0.6,69.5,1.1c22.8,0.5,46.5,1.1,69.9,1.1c1.4,0,2.9,0,4.3,0c35-0.1,166.2-0.2,298.6-0.2
			c113.2,0,193.4,0.1,219.9,0.2c15.2,0.1,34.1,0.1,49,7.5c10.5,5.2,17.9,13.9,21.9,25.8c4.5,13,4.3,27.2,4.2,38.6l0,1.2
			c-0.2,20.4,0.3,41.1,0.7,61.1c0.3,15,0.7,30.4,0.7,45.7c0.2,44.9,0.4,119.6,0.3,182.7c0,12.6,0.2,26.8,0.3,41.8
			c0.4,30.7,0.7,62.5-0.3,88c-0.2,4-0.1,8.6,0,13.4c0.4,27.7,0.9,69.6-45.6,75.2c-38.7,4.7-273.6,5.2-372.8,5.2c0,0,0,0,0,0
			c-46.6,0-82-0.1-94.4-0.2c-24.3,0-49.1,0.2-73,0.4C919.3,1247.3,894.5,1247.5,870.1,1247.5z"/>
		<path class="st5" d="M790.1,663.1c46.4,0,92.6,2.2,139.4,2.2c1.4,0,2.9,0,4.4,0c37.3-0.1,173.7-0.2,298.6-0.2
			c98.8,0,190.4,0,219.9,0.2c16.2,0.1,33.5,0.4,47,7.1c10.6,5.3,16.4,13.7,19.7,23.2c4.4,12.7,4,27.2,3.9,38.3
			c-0.3,35.7,1.3,71.1,1.4,106.8c0.2,48.6,0.4,122,0.3,182.7c0,38,1.6,91.7,0.1,129.6c-1.1,28,8.2,78.3-41.7,84.3
			c-36.1,4.3-244.8,5.1-372.3,5.1c-45.8,0-81.2-0.1-94.3-0.2c-48.7,0-97.5,0.8-146.2,0.8c-26.9,0-53.7-0.2-80.6-1
			c-3.5-0.1-7.1-0.1-10.8-0.1c-6,0-12.3,0.1-18.8,0.1c-24.1,0-50.1-1-69.1-10.9c-36.1-18.8-22.3-88.9-22.6-122.1
			c-0.3-30.9-0.4-61.7-0.7-92.6c-0.9-95.5-1.7-45.8-2.2-141.3c-0.1-27.2,0.2-54.4,0.3-81.6c0.1-27.2-3.3-54.4,0.4-81.5
			c2-14.4,6.5-30,22.1-38.7c11.3-6.3,26.2-7.6,40.3-8.4C749.1,663.5,769.6,663.1,790.1,663.1 M790.1,654.1c-23,0-43.4,0.5-62.3,1.7
			c-15.3,0.9-31.3,2.4-44.1,9.6c-19.8,11.1-24.6,31.2-26.6,45.3c-2.6,18.9-1.8,37.7-1.1,56c0.3,8.8,0.7,17.9,0.7,26.8
			c0,8.8-0.1,17.7-0.1,26.4c-0.1,18.1-0.2,36.9-0.1,55.4c0.3,50.1,0.6,60.5,1,72.5c0.3,11,0.7,23.4,1.2,68.9
			c0.2,15.4,0.2,31.1,0.3,46.3c0.1,15.2,0.2,30.9,0.3,46.3c0.1,6.4-0.5,14.6-1,23.3c-2.3,37.6-5.6,89,28.5,106.7
			c21.2,11,48.9,11.9,73.3,11.9c3.3,0,6.6,0,9.8,0c3.1,0,6.1,0,9,0c4.2,0,7.6,0,10.6,0.1c24.3,0.7,50,1,80.8,1
			c24.4,0,49.2-0.2,73.2-0.4c23.9-0.2,48.7-0.4,73-0.4c12.4,0.1,47.7,0.2,94.3,0.2c99.3,0,334.5-0.5,373.4-5.2
			c22.2-2.7,37.1-13.6,44.3-32.4c5.8-15.1,5.5-33,5.3-47.3c-0.1-4.8-0.1-9.3,0-13.1c1-25.6,0.6-57.5,0.3-88.3
			c-0.2-15-0.3-29.2-0.3-41.7c0.1-63.2-0.1-137.9-0.3-182.7c-0.1-15.3-0.4-30.8-0.7-45.8c-0.4-20-0.9-40.6-0.7-60.9l0-1.2
			c0.1-11.2,0.3-26.4-4.4-40.1c-4.5-13-12.6-22.6-24.2-28.3c-15.8-7.9-35.3-8-51-8c-26.5-0.1-106.7-0.2-220-0.2
			c-132.4,0-263.5,0.1-298.6,0.2c-1.4,0-2.9,0-4.3,0c-23.3,0-46.9-0.6-69.8-1.1C837,654.6,813.4,654.1,790.1,654.1L790.1,654.1z"/>
	</g>
	<path class="st6" d="M1523,724c-0.5-5.8-2-22.9-3.9-28.5c-3.3-9.5-9.1-17.9-19.7-23.2c-13.5-6.7-30.8-7-47-7.1
		c-66.8-0.3-451.7-0.2-518.5,0c-69,0.2-136.6-4.6-205.5-0.5c-14.1,0.8-29,2.1-40.3,8.4c-15.5,8.7-20.1,24.3-22.1,38.7
		c-0.8,6.2-1.3,12.4-1.5,18.6C724.5,730.3,1296.9,728.1,1523,724z"/>
	<path class="st3" d="M1356.9,686.9c6.7-6.2,18.8-4.1,21.3,6c1.4,5.4-1,11.7-5.6,14.9c-4.6,3.2-11.1,3-15.3-0.5
		c-4.2-3.5-5.8-9.9-3.8-15.2C1354.3,690,1355.5,688.3,1356.9,686.9z"/>
	<path class="st3" d="M1407.4,686.9c6.7-6.2,18.8-4.1,21.3,6c1.4,5.4-1,11.7-5.6,14.9c-4.6,3.2-11.1,3-15.3-0.5
		c-4.2-3.5-5.8-9.9-3.8-15.2C1404.8,690,1406,688.3,1407.4,686.9z"/>
	<path class="st3" d="M1457.9,686.9c6.7-6.2,18.8-4.1,21.3,6c1.3,5.4-1,11.7-5.6,14.9c-4.6,3.2-11.1,3-15.3-0.5
		c-4.2-3.5-5.8-9.9-3.8-15.2C1455.3,690,1456.5,688.3,1457.9,686.9z"/>
	<path class="st7" d="M960.4,895.3l5.4,2.6c25.1-51.4,80.9-82.7,136.8-82.7c41.4,0,82.5,16.9,112,55.2
		c19.5,25.3,29.4,57.5,29.4,89.7c0,29.3-8.2,58.6-24.7,82.6c-27,39.5-75.4,63.3-123.3,63.3c-13.2,0-26.4-1.8-39.1-5.5
		c-29.3-8.6-55.2-27.5-74-51.8c-18.8-24.4-30.3-54.3-31.1-84.8c0-1.4-0.1-2.8-0.1-4.2c0-22.9,5.1-43.6,14-61.7L960.4,895.3l-5.4-2.6
		c-9.7,19.7-15.2,42.3-15.2,67c0,1.5,0,3,0.1,4.6c0.9,33.4,13.4,65.5,33.6,91.8c20.2,26.2,48.1,46.6,80.1,56c13.9,4.1,28.2,6,42.5,6
		c51.8,0,103.6-25.4,133.2-68.5c18-26.2,26.8-57.8,26.8-89.4c0-34.6-10.6-69.3-31.9-97c-31.8-41.4-76.9-59.9-121.5-59.9
		c-60.3,0-120.2,33.4-147.6,89.4L960.4,895.3z"/>
	<path class="st6" d="M1207.3,958c-1.4-4.8-5.6-7.3-9.5-9.2c-46.8-24.1-125.6-70.9-158.2-82.2c-5.8-2-11.7,3-12.4,10.4
		c-3,35.3-5.3,117-6.3,159.8c-0.3,12.9,10.2,22,20,17.2c44.5-22.1,110.9-56.8,156.9-82.8C1204.6,967.3,1209.8,966.5,1207.3,958z"/>
	<path class="st2" d="M1488.5,1179.9c-0.1-1.3-0.2-3.4-4.7-4.2c-1.3-0.2-2.7-0.3-4.2-0.4c-6.8-0.2-13.6-0.1-20.4-0.1
		c-41.4,0.1-82.4,0.3-123.9,0.2c-47.7,0-95.3,0-143,0c-32.6,0-65.2,0-97.8,0c-26.5,0-53.1,0-79.6,0c-28.9,0-57.8,0-86.7,0
		c-30.7,0-61.4,0-92.1,0c-39.7,0-79.4,0-119.1,0c-2.3,0-4.2,0.8-4.2,1.7c0.1,3.3,0.3,6.6,0.5,9.9c0.1,0.9,1.9,1.6,4.2,1.6
		c3.8,0,7.6,0,11.2,0c65.7,0.1,662.1,0.1,713.7-0.1c7,0,14,0.1,21,0.2c6.1,0,12.3,0,18.4-0.1c5,0,6.9-1.3,7.4-3
		C1489.9,1183.5,1488.6,1181,1488.5,1179.9z"/>
	<path class="st6" d="M783.7,1170.2c8-7.4,22.4-4.9,25.4,7.1c1.6,6.5-1.2,14-6.7,17.8c-5.5,3.8-13.2,3.6-18.2-0.6
		c-5-4.1-6.9-11.8-4.5-18.1C780.5,1173.8,781.9,1171.8,783.7,1170.2z"/>
	<path class="st8" d="M1884.7,1138.7c-2.6-4.9-7.2-9.4-15.4-12.1c-10.6-3.5-24.1-3.7-36.9-3.7c-52.4-0.1-354.5-0.1-406.9,0
		c-54.1,0.1-107.1-2.4-161.2-0.3c-11.1,0.4-22.7,1.1-31.6,4.4c-12.2,4.5-15.8,12.7-17.3,20.2c-2.9,14.2-0.2,28.4-0.3,42.5
		c-0.1,14.2,1.7,58,2,74.1c0.3,17.3-3,54.9,17.8,63.7c20.9,8.9,54,5.3,77.5,5.7c59.3,1.1,118.7,0.1,178,0.1
		c38.8,0.2,327.7,0.5,366.1-2.6c39.2-3.1,31.9-29.3,32.8-44c1.2-19.8-0.1-47.8,0-67.6c0-31.7-1.6-41.9-1.3-60.5
		C1887.9,1152.9,1888.1,1145.3,1884.7,1138.7z"/>
	<path class="st3" d="M1271.7,1198.2c20.6-42.2,84.5-55.3,117.1-12.9c17.6,22.9,18.6,57.2,2.2,81.1c-16.3,23.8-48.7,35.3-76.4,27.2
		c-27.7-8.2-48.7-35.4-49.4-64.3C1264.8,1217.8,1267.2,1207.3,1271.7,1198.2z"/>
	<path class="st8" d="M1383.3,1226.6c-0.6-2.2-2.6-3.3-4.3-4.2c-21.2-10.9-56.8-32-71.5-37.1c-2.6-0.9-5.3,1.4-5.6,4.7
		c-1.4,16-2.4,52.9-2.8,72.2c-0.1,5.8,4.6,10,9,7.8c20.1-10,50.1-25.7,70.9-37.4C1382.1,1230.8,1384.4,1230.4,1383.3,1226.6z"/>
	<path class="st3" d="M1828.7,1171.5c0-1.8-0.1-4.5-2.3-5.7c-0.6-0.3-1.3-0.4-2.1-0.5c-3.3-0.2-6.7-0.2-10-0.2
		c-20.4,0.2-40.6,0.3-61,0.3c-23.4,0-46.9,0-70.4-0.1c-16.1,0-32.1,0-48.2,0c-13,0-26.1,0-39.2,0c-14.2,0-28.5,0-42.7,0
		c-15.1,0-30.2,0-45.4,0c-19.5,0-39.1,0-58.6,0c-1.1,0-2.1,1-2.1,2.2c0,4.4,0.1,8.8,0.2,13.2c0,1.2,0.9,2.2,2.1,2.2
		c1.9,0,3.7,0,5.5,0c32.3,0.1,325.9,0.2,351.3-0.2c3.5,0,6.9,0.1,10.3,0.2c3,0,6.1-0.1,9.1-0.1c2.4,0,3.4-1.8,3.7-4
		C1829.4,1176.3,1828.8,1172.9,1828.7,1171.5z"/>
	<path class="st3" d="M1828.7,1225.2c0-1.8-0.1-4.5-2.3-5.7c-0.6-0.3-1.3-0.4-2.1-0.5c-3.3-0.2-6.7-0.2-10-0.2
		c-20.4,0.2-40.6,0.3-61,0.3c-23.4,0-46.9,0-70.4,0c-16.1,0-32.1,0-48.2,0c-13,0-26.1,0-39.2,0c-14.2,0-28.5,0-42.7,0
		c-15.1,0-30.2,0-45.4,0c-19.5,0-39.1,0-58.6,0c-1.1,0-2.1,1-2.1,2.2c0,4.4,0.1,8.8,0.2,13.2c0,1.2,0.9,2.2,2.1,2.2
		c1.9,0,3.7,0,5.5,0c32.3,0.1,325.9,0.2,351.3-0.2c3.5,0,6.9,0.1,10.3,0.2c3,0,6.1-0.1,9.1-0.1c2.4,0,3.4-1.8,3.7-4
		C1829.4,1230,1828.8,1226.7,1828.7,1225.2z"/>
	<path class="st3" d="M1671.4,1278.9c0-1.8-0.1-4.5-1.4-5.7l-1.2-0.5c-2-0.2-3.9-0.2-5.9-0.2c-12,0.2-23.9,0.3-35.8,0.3
		c-13.8,0-27.6,0-41.4,0c-9.4,0-18.9,0-28.3,0c-7.7,0-15.4,0-23,0c-8.4,0-16.7,0-25.1,0c-8.9,0-17.8,0-26.7,0c-11.5,0-23,0-34.5,0
		c-0.7,0-1.2,1-1.2,2.2c0,4.4,0.1,8.8,0.1,13.2c0,1.2,0.5,2.2,1.2,2.2c1.1,0,2.2,0,3.2,0c19,0.1,191.6,0.2,206.5-0.2
		c2-0.1,4.1,0.1,6.1,0.2c1.8,0,3.6-0.1,5.3-0.1c1.4,0,2-1.8,2.1-4C1671.8,1283.8,1671.4,1280.4,1671.4,1278.9z"/>
	<g>
		<path class="st6" d="M1305.4,486.9c2-5.8,5.6-11,12.1-14.3c8.3-4.1,18.9-4.3,28.9-4.3c41.1-0.2,277.7-0.1,318.7,0
			c42.4,0.1,83.9-2.8,126.3-0.3c8.7,0.5,17.8,1.3,24.7,5.2c9.6,5.3,12.4,15,13.6,23.8c2.3,16.7,0.2,33.4,0.2,50.1
			c0.1,16.7,0.3,33.5,0.2,50.2c-0.3,58.7-0.8,28.1-1.3,86.9c-0.2,19-0.2,38-0.4,56.9c-0.2,20.4,8.3,63.5-13.9,75
			c-16.8,8.7-42.3,6.3-60.7,6.7c-46.4,1.3-92.9,0.1-139.4,0.1c-30.4,0.2-256.7,0.6-286.8-3c-30.7-3.7-25-34.6-25.6-51.8
			c-0.9-23.3,0.1-56.3,0-79.7c0-37.3,0.1-82.4,0.2-112.3c0.1-22,1.1-43.7,0.9-65.7C1303,503.6,1302.8,494.7,1305.4,486.9z"/>
		<path class="st6" d="M1688.7,844.9c12.9,13.9,28,25.7,44.5,35c6.2,3.5,53.3,27.2,57,17.9c0.5-1.4,0-2.9-0.5-4.3
			c-5.6-14.5-9.4-29.8-11.4-45.2c-1.5-11.8-1.8-23.8-3.1-35.7c-0.2-2-0.5-4.2-1.8-5.8c-1.3-1.6-3.4-2.4-5.4-3
			c-14.2-4.3-98-19.4-101.5,3.3c-0.3,1.7,0.1,3.5,0.6,5.1c2.5,8.6,7.7,16.1,13.3,23C1683.1,838.7,1685.9,841.9,1688.7,844.9z"/>
		<path class="st3" d="M1392.2,616.5c19.7-17.7,55.6-11.1,63.4,18c4.2,15.7-2.6,33.9-16.2,42.9c-13.6,9-32.8,8.2-45.4-1.9
			c-12.6-10.1-17.6-28.8-11.9-44.1C1384.4,625.3,1387.9,620.3,1392.2,616.5z"/>
		<path class="st3" d="M1545.5,616.5c19.7-17.7,55.6-11.1,63.4,18c4.2,15.7-2.6,33.9-16.2,42.9c-13.6,9-32.8,8.2-45.4-1.9
			c-12.6-10.1-17.6-28.8-11.9-44.1C1537.8,625.3,1541.2,620.3,1545.5,616.5z"/>
		<path class="st3" d="M1698.8,616.5c19.7-17.7,55.6-11.1,63.4,18c4.2,15.7-2.6,33.9-16.2,42.9c-13.6,9-32.8,8.2-45.4-1.9
			c-12.6-10.1-17.6-28.8-11.9-44.1C1691.1,625.3,1694.6,620.3,1698.8,616.5z"/>
	</g>
</g>
</svg>
