<?xml version="1.0" encoding="utf-8"?>
<!-- Generator: Adobe Illustrator 21.0.2, SVG Export Plug-In . SVG Version: 6.00 Build 0)  -->
<svg version="1.1" id="Calque_1" xmlns="http://www.w3.org/2000/svg" xmlns:xlink="http://www.w3.org/1999/xlink" x="0px" y="0px"
	 viewBox="0 0 800 651" style="enable-background:new 0 0 800 651;" xml:space="preserve">
<style type="text/css">
	.st0{fill:#FFFFFF;}
	.st1{fill:#F7CF1D;}
</style>
<path d="M300.8,142c2.5-0.8,4.9-1.7,7.2-2.5c2.6-0.9,4.3-1.6,5.1-2.1c1-0.5,2-0.7,3.2-0.7c0.8,0,0.9,0.6,0.2,1.7
	c-0.3,0.7-1.3,1.4-2.9,2.1c-0.7,0.3-1.6,0.7-2.7,1.1l119.1,0.6c2.4,5.7-1.1-5.7-1.2-6c-0.4-2.7-0.9-4.3-1.3-4.8
	c-0.5-0.7-0.7-1.6-0.7-2.7c0-0.9-0.6-1.9-1.7-3.1c-1-1.4-1.5-2.4-1.5-3.1c0-2-1.6-3.7-4.9-4.9c-3.2-1.2-6.9-2.2-10.9-2.8
	c-4-0.7-7.9-1-11.5-1.1c-3.6-0.1-5.9-0.1-6.7-0.1c-9.1,0-18.9,1.1-29.4,3.2c-10.5,2.1-21.2,4.8-31.9,8.1
	c-10.8,3.3-21.3,7.1-31.5,11.4c-5.1,2.1-24.8,10.5-29.5,12.6L300.8,142z M329.9,134.2c0.3-0.4,2.7-1,7-1.9
	c4.4-0.8,12.3-2.4,23.8-4.7c2.8-0.4,5.5-0.8,8.1-1.3c2.7-0.4,5.1-0.8,7.4-1.1c2.3-0.3,4.1-0.5,5.6-0.6c1.5-0.1,2.3-0.2,2.4-0.2
	l-5.1,1.2c-1.9,0.2-4.5,0.6-7.5,1.3c-3.1,0.6-6.4,1.3-9.8,2c-3.5,0.7-7,1.5-10.6,2.3c-3.6,0.8-6.7,1.6-9.5,2.2
	c-2.8,0.6-5.2,1.2-7.3,1.7c-2.1,0.5-3.4,0.9-3.9,1.1c-0.3,0.2-0.6,0.3-1,0.3c-0.3,0-0.5-0.3-0.5-0.9
	C329.1,134.8,329.4,134.2,329.9,134.2z M321.4,137.9c0.3-0.4,0.9-1,1.8-1.7c0.9-0.7,1.7-1.1,2.3-1.1c0.3,0,0.5,0.1,0.5,0.3
	c0.3,0.4,0.2,1-0.4,1.8c-0.6,0.8-1.2,1.2-1.8,1.2c-1.1,0-1.9,0.1-2.2,0.3C321.1,139.1,321.1,138.8,321.4,137.9z"/>
<path d="M604,293.2l-1.7,3l1-3c1.4-3.8,1.5-5.6,0.4-5.6c-0.6,0-1.4,0.7-2.3,2.1l-1.5,2.7l1-3c0.5-1.8,0.5-2.8,0-3.2
	c-0.3-0.4-0.9,0-1.7,1.1c-0.8,1.1-2.2,3.6-4.2,7.3c-0.9,1.6-1.4,2.6-1.7,3c-0.3,0.6-0.6,1.1-0.9,1.5c-0.3,0,0.2-1.2,1.4-3.6
	c2.3-4.7,0-8.1,0.2-9.7l-1.9,5.2c-0.7,1.2-1.4,2.5-2.3,4.1c-2.5,4.6-4.7,8.9-6.7,12.9c-1.4,3-3.4,6.2-6,9.8c-2.6,3.5-5.4,7-8.5,10.5
	c-3.1,3.4-6.2,6.6-9.4,9.5c-3.2,2.9-5.9,5.1-8.2,6.8c-4.5,2.7-9,4.2-13.7,4.4c-1.1-0.3-1.9-1.6-2.7-1.5c-3.1,0.3-8.9-5-10-6.7
	L513,350.9c1.4,2.9,9.3,8.5,11.5,9.5c3,1.4,10.1,2.6,15.8,3c1.8,0.1,3.6-0.2,5-0.2c1.4,0,3.2-0.7,3.6-0.7c1.3-0.1,4-2.3,6.4-3.3
	c2.3-1,4.6-2.2,6.7-3.7c1.2-1,2.2-1.8,3.1-2.5c0.8-0.6,1.3-1,1.2-1.2c0.1-0.2,0.3-0.4,0.4-0.6c0.1-0.2,0.5-0.5,1.1-0.9
	c1.2-0.8,1.8-1.4,1.8-1.8c0-0.4,0.6-1.3,2-2.7c1.7-1.2,2.3-2,2-2.4c-0.2-0.2,0.2-0.5,1.1-0.9c1.1-1,2.8-2.9,5.2-5.8
	c1.2-1.4,2.2-2.6,3-3.5c0.8-0.9,1.3-1.4,1.5-1.4c-0.2,0,0.2-0.3,1.1-0.9c0.3-0.8,0.6-1,0.9-0.6c0.7,0.4,0.7,0.3,0.2-0.3
	c-0.2-0.4,0.6-2.1,2.3-5.1c0.7-1,1.6-2.4,2.7-4.2c1.1-1.8,2-3.4,2.7-4.8c0.7-1.4,1.6-3,2.6-4.8c1-1.8,1.9-3.2,2.6-4.2
	c1.2-2,2.3-4.5,3.6-7.6c1.2-3.1,2-5.5,2.4-7.3c0.1-0.2,0.2-0.4,0.2-0.6l0-0.3C605.6,291.1,605.1,291.8,604,293.2z M580.5,334
	c-1.2,1.2-2.5,2.7-3.8,4.5c-1.5,1.8-2.6,2.9-3.4,3.4c-0.6,0.4-0.8,0.7-0.7,0.9c0,0.2-0.2,0.5-0.7,0.9c-0.1,0.2-0.3,0.3-0.5,0.3
	c-1,0-0.3-1.4,2.1-4.2c1.9-2.2,3.7-4.3,5.3-6.1c1.6-1.8,2.5-2.5,2.9-2.2C582.1,331.6,581.7,332.4,580.5,334z M579.7,320.7
	c-1.7,2.5-3.3,4.8-5,6.8c-1.2,1.6-2.4,3.1-3.7,4.4c-1.3,1.3-2.2,2.3-2.8,2.9c-0.3,0.2-0.7,0.6-1.1,1.2l-0.5,0.3
	c-0.2,0,0.5-0.9,2-2.7c2.6-3.6,5.3-7.2,8.1-10.7c2.7-3.5,4.3-5.4,4.6-5.6c0.1-0.2,0.3-0.3,0.5-0.3
	C582.1,316.9,581.4,318.2,579.7,320.7z M593.9,314.7c-0.6,1.2-1.4,2.7-2.6,4.5c-1.2,1.8-1.7,2.3-1.6,1.5c0.1-0.4,0.5-1,1-1.8
	c0.5-0.8,1-1.7,1.6-2.7C593.6,314.4,594.2,313.9,593.9,314.7z M599.7,304.5l-0.2,0.6c-0.3,0.4-0.7,1-1.1,1.9
	c-0.4,0.9-0.8,1.6-1.1,2.2c-0.6,1.2-1.2,2.1-2,2.7c-0.9,0.4,0.2-1.8,3.4-6.6l0.9-1.2L599.7,304.5z"/>
<path d="M259.8,545.2c-1,0.8-1.9,1.6-2.8,2.5c-14.8,15.1-40.7,9.5-47.7-10.9l-60-173.8l-60-173.8c-7-20.3,9.8-40.6,30.6-38
	c1.4,0.2,2.8,0.3,4.2,0.3l593.1-19.1c2.6-0.1,5.2,0.2,7.7,1.1c17.3,6.1,24.5,27.1,14.5,42.6c-1.3,2.1-3.1,3.8-5,5.3L259.8,545.2z"/>
<g>
	<path class="st0" d="M295.1,366.8c-0.2-0.6-0.6-0.8-1.4-0.8c-0.5,0-1-0.2-1.7-0.6l-0.5-0.6c-0.3,0-0.7,0.4-1.2,1.1
		c-0.5,0.9-1,1.4-1.7,1.4c-0.6,0-1.8-0.9-3.3-2.8c-0.6-0.7-1.2-1.5-1.7-2.2c-0.5-0.7-0.9-1.8-1.2-3.1c-0.3-1.3-0.6-3-0.9-5.1
		c-0.2-2.1-0.5-5.1-0.9-9c-0.5-5.7-0.8-12.4-0.9-20c-0.1-7.6,0.1-15.6,0.5-24c0.4-8.4,1.1-17.2,1.9-26.3c0.8-9.1,1.9-18.1,3.1-27
		c1.7-11.3,3.7-22.7,6.1-34.2c2.3-11.5,5-22.5,8-33.1c0.9-3.3,1.8-6.3,2.5-8.8c0.7-2.5,1-3.8,0.8-4c-2.2,0.4-4.1,0.8-5.5,1.1
		c-1.4,0.4-2.9,0.8-4.5,1.3c-1.6,0.5-3,0.9-4.3,1.3c-1.3,0.4-2.3,0.7-3,0.8c-0.7,0.2-1.2,0.3-1.5,0.3c-0.2,0-0.2,0-0.1-0.1
		c0.1-0.1,0.4-0.2,0.8-0.4c0.3-0.2,1.4-0.6,3.3-1.1c1.9-0.6,4-1.2,6.4-2c4.1-1.1,6.8-2,8.1-2.5c1.3-0.6,1.7-1,1.4-1.4
		c-0.5,0.2-1,0.3-1.7,0.3c-0.5,0.2-1,0.3-1.7,0.4c-0.6,0.1-1.4,0.3-2.1,0.7c-1.6,0.4-3.1,0.8-4.6,1.1c-1.5,0.4-2.6,0.7-3.2,0.8
		c-10.9,2.6-22.4,6.3-34.4,11.1c-12,4.8-23.1,9.6-33.4,14.4c-6.3,2.8-9.8,4.2-10.5,4.2c-1,0,4-2.8,15-8.4c2.1-0.9,4.6-2.1,7.6-3.4
		c3-1.3,6.2-2.7,9.5-4.1s6.7-2.8,10-4.1c3.3-1.3,6.4-2.4,9.3-3.4c1.1-0.4,2.3-0.7,3.7-1.1c1.3-0.4,2.4-0.7,3.2-1.1
		c2.4-1.1,10.2-3.7,23.6-7.9c1.7-0.6,3.4-1.1,5-1.5c1.6-0.5,2.7-0.9,3.3-1.3c1.1-0.4,1.9-0.7,2.4-1.1c0.5-0.4,0.6-0.6,0.2-0.6
		l-0.5,0c-0.3,0.2-1.1,0.4-2.3,0.6c-1.2,0.2-2.5,0.5-3.9,0.8c-1.6,0.4-3.5,0.8-5.6,1.4c-2.1,0.6-4.3,1.2-6.4,1.8
		c-2.1,0.7-4,1.3-5.6,1.8c-1.6,0.6-2.5,0.9-2.9,1.1c-0.3,0.2-1,0.4-1.9,0.6c-1,0.2-2.1,0.5-3.3,0.8c-1.1,0.4-2.7,0.9-4.6,1.5
		c-2,0.7-3.8,1.5-5.6,2.4c-1.7,0.9-3.4,1.7-5.1,2.4c-1.7,0.7-2.9,1.1-3.7,1.3c-1.9,0.7-2.9,1.2-3.1,1.4c-0.3,0-1.9,0.7-4.8,2
		c-2.9,1.3-6,2.8-9.4,4.3c-3.4,1.6-6.6,3.1-9.5,4.5c-2.9,1.4-4.7,2.3-5.4,2.7c-1.4,0.7-2.7,1.4-3.8,2c-1.1,0.6-1.8,0.8-2.1,0.8
		c-0.6,0-1,0.2-1,0.6h-0.2c0,0.2-0.2,0.3-0.5,0.3c-0.2,0-0.4,0.1-0.7,0.1c-0.3,0.1-0.6,0.1-1,0.1l-0.5,0c-1.3,0-0.8-1,1.4-3.1
		c1.4-1.3,2.1-2.1,2.1-2.5c-0.2-0.2-0.2-0.3-0.1-0.4c0.1-0.1,0.2,0,0.4,0.1c0.2,0.2,0.7,0,1.7-0.4c1-0.5,1.9-1,3-1.7
		c1-0.7,2-1.3,2.9-1.8c0.9-0.6,1.3-0.9,1.3-1.1c0-0.4-0.2-0.6-0.5-0.6c-0.3,0-0.5,0.2-0.5,0.6c0,0.6-0.2,0.7-0.5,0.3
		c-0.6,0-1.1,0.2-1.4,0.6c-0.3,0.7-0.6,0.9-1,0.6c-0.2-0.2-0.2-0.1-0.2,0.3c0,0.4-0.2,0.5-0.7,0.3c-0.3,0-0.5,0.2-0.5,0.6
		c0,0.2-0.2,0.3-0.5,0.3c-0.3-0.4-0.5-0.3-0.5,0.3c0,0.6-0.2,0.7-0.5,0.3c-0.2-0.2-1.1,0.3-2.9,1.4c-4.8,3.7-7.3,5.4-7.6,5
		c-0.8-0.9-0.4-2.2,1.2-3.9c2.5-2.8,7.1-6.1,13.7-9.9c6.6-3.8,14.2-7.7,22.8-11.8c8.6-4,17.9-7.9,27.8-11.8
		c9.9-3.8,19.5-7.1,28.7-9.7c4.1-1.3,7-2.2,8.6-2.8c1.6-0.6,2.5-1.1,2.9-1.7c0.6-0.9,0.5-1.4-0.2-1.4c-1.1,0-2.1,0.2-3.1,0.6
		c-0.8,0.4-2.5,0.9-5,1.7c-2.5,0.8-5.2,1.5-7.9,2.2c-4.8,1.5-11.2,3.8-19.4,6.7c-8.2,3-16.6,6.4-25.2,10.1
		c-8.6,3.7-16.8,7.7-24.4,11.8c-7.6,4.1-13.3,8.1-17.1,12c-2.4,2.6-3.9,3.9-4.5,3.9c-0.2,0-0.2-0.2-0.2-0.6c0-2,1.3-4.3,3.9-6.8
		c2.6-2.5,5.9-5.1,10-7.7c4-2.6,8.5-5.3,13.4-8c4.9-2.7,9.6-5.1,14-7.3c4.4-2.1,8.4-4,11.8-5.5c3.4-1.5,5.7-2.5,7-3.1
		c8.2-3.5,17.4-7.1,27.5-10.5c10.1-3.5,20.4-6.6,30.9-9.3c10.5-2.7,21-4.9,31.3-6.6c10.3-1.7,19.9-2.6,28.8-2.6c0.8,0,3,0,6.5,0.1
		c3.6,0.1,7.3,0.4,11.3,0.9s7.5,1.3,10.7,2.3c3.2,1,4.8,2.3,4.8,4c0,0.6,0.5,1.4,1.4,2.5c1.1,0.9,1.7,1.8,1.7,2.5
		c0,0.9,0.2,1.7,0.7,2.2c0.5,0.4,0.9,1.7,1.3,3.9c0.4,2.2,0.4,3.8,0.1,4.7c-0.3,0.7-1.5,1.7-3.6,2.8c-2.1,1.1-3.9,1.9-5.5,2.2
		l-2.1,0.3l6.2-3.6l-2.6,0.3l-1.4,0c-1,0-1.9-0.2-2.9-0.5c-1-0.6-2.6-0.8-5-0.8c-1.4,0-4.2,0.3-8.5,1c-4.2,0.7-9,1.5-14.4,2.4
		c-5.4,0.9-11.1,2-17,3.1c-6,1.1-11.4,2.2-16.4,3.3c-5,1-9.1,1.9-12.4,2.7c-3.3,0.8-5,1.2-5.1,1.4c-0.2,0.2-0.4,1-0.7,2.4
		c-0.3,1.4-0.6,3.1-0.9,5.1c-0.8,4.1-1.2,6.7-1.4,7.8c-0.2,1.1-0.4,1.6-0.7,1.4c0-0.7,0.4-3.4,1.2-8.1c0.3-2,0.6-3.8,0.8-5.4
		c0.2-1.6,0.3-2.4,0.1-2.4c-0.3-0.4-0.6-0.1-1,0.8c-0.3,0.9-0.9,2.9-1.6,5.8c-0.3,1.7-0.7,3.5-1.2,5.6c-0.5,2-0.9,3.6-1.2,4.7
		c-0.8,3.9-1.7,8.6-2.8,14.2c-1.1,5.6-2.2,11.1-3.3,16.7c-0.8,4.3-1.5,8.1-2.2,11.4c-0.7,3.3-1.4,6.3-2.2,8.9
		c-0.3,0.9-0.6,2.4-0.8,4.3c-0.2,1.9-0.5,3.9-0.8,5.7c-0.3,1.9-0.9,5.8-1.7,11.7c-0.9,5.9-1.8,12.1-2.9,18.6
		c-1.1,6.5-2.1,12.6-3,18.2c-0.9,5.7-1.5,9.2-1.6,10.7c-1.4,8.9-2.5,16.4-3.4,22.4c-0.9,6-1.6,11.1-2.1,15.3
		c-0.5,4.2-0.9,7.6-1.2,10.4c-0.2,2.8-0.4,5.4-0.6,7.8c-0.1,4.1-0.1,6.5,0,7.4c0.2,0.8,0.4,1.1,0.7,0.7c0.5-0.6,0.6-0.4,0.5,0.6
		c-0.3,1.3-0.7,2.5-1.2,3.5c-0.5,1-0.9,1.5-1.2,1.5C295.8,368.2,295.4,367.7,295.1,366.8z M221.4,195.9c1.9-0.9,3.4-1.6,4.5-2.1
		c1.1-0.5,2.6-1.1,4.5-1.8c0,0.4-1.3,1-3.8,2c-2.4,0.9-3.9,1.6-4.5,2C221.6,196.1,221.4,196.1,221.4,195.9z M233.3,190.6
		c0.3-0.2,1.3-0.6,3-1.4c1.7-0.7,3.4-1.4,5.4-2.1c1.9-0.6,4.4-1.5,7.6-2.7c0.2,0-0.5,0.3-2,1c-1.5,0.7-3.4,1.4-5.6,2.4
		c-3.2,1.3-5.4,2.2-6.5,2.7c-1.2,0.5-1.9,0.7-2.3,0.7C232.5,191.1,232.7,190.9,233.3,190.6z M260.6,168.2c3.2-1.1,5.9-2.2,8.3-3.2
		c2.4-1,3.4-1.6,3.1-1.8c-0.2,0-1.1,0.3-2.7,0.8c-1.7,0.6-3.5,1.2-5.5,2c-2,0.8-3.8,1.5-5.6,2.2c-1.7,0.7-2.8,1.3-3.1,1.7
		c-0.5,0.4-0.5,0.5,0,0.3C255.6,170,257.4,169.4,260.6,168.2z M272.3,175.7c0.5,0,0.8,0.1,1,0.3c0.2,0,0.2,0,0,0.1
		c-0.2,0.1-0.4,0.1-0.7,0.1C271.7,176.3,271.7,176.1,272.3,175.7z M278.7,173.7c0.5-0.2,1.1-0.3,1.9-0.3c0.2,0,0.1,0.1-0.2,0.3
		c-1,0.4-1.6,0.6-1.9,0.6C278.2,174.3,278.3,174.1,278.7,173.7z M294.2,300.9c-0.2-0.4-0.2-0.1-0.2,0.8c0,1.1,0.1,1.5,0.2,1.1
		L294.2,300.9z M296.5,290.9c0.5-1.1,0.7-3.1,0.8-5.8c0.1-2.8-0.1-4.2-0.6-4.2c-0.2,0-0.4,0.9-0.7,2.8c-0.3,1.9-0.7,3.1-1.2,3.6
		c-0.3,0.4-0.5,0.9-0.6,1.7c-0.1,0.7-0.1,2.4-0.1,5l0.3,5.8l0.7-3.3c0.2-0.9,0.3-1.9,0.6-2.9C295.9,292.6,296.2,291.7,296.5,290.9z
		 M295.7,337.1c0-0.4,0-0.5-0.1-0.3c-0.1,0.2-0.1,0.5-0.1,0.8c0,0.4,0,0.7,0.1,0.8c0.1,0.2,0.1,0.2,0.1,0
		C296,337.9,296,337.4,295.7,337.1z M299.2,308.7c0-0.4,0-0.5-0.1-0.3c-0.1,0.2-0.1,0.5-0.1,0.8c0,0.6,0,1,0.1,1.3
		c0.1,0.3,0.1,0.2,0.1-0.1C299.5,310,299.5,309.4,299.2,308.7z M299.7,305.4c0-0.4,0-0.5-0.1-0.3c-0.1,0.2-0.1,0.5-0.1,0.8
		c0,0.4,0,0.7,0.1,1c0.1,0.3,0.1,0.2,0.1-0.1C300.1,306.2,300.1,305.7,299.7,305.4z M299.6,341.8c0-0.9,0.2-1.8,0.5-2.5l0.2-0.6
		c0.3,0,0.3,0.6,0,1.7c-0.3,1.9-0.5,2.8-0.7,2.8L299.6,341.8z M300.4,301.8c-0.3-0.7-0.5-0.6-0.5,0.3c0,0.4,0,0.6,0.1,0.8
		c0.1,0.2,0.1,0.2,0.1,0C300.3,302.7,300.4,302.3,300.4,301.8z M303.9,279.8c1.1-5.4,1.3-7.7,0.7-7c-0.3,0.4-0.7,2.1-1.3,5.3
		c-0.5,3.2-0.9,5.7-1,7.8l0,2.5C302.4,288.4,302.9,285.5,303.9,279.8z M303.5,315.6c0-0.9,0.2-1.2,0.5-0.8l0,1.4
		C303.7,316.9,303.5,316.7,303.5,315.6z M304.2,312.3c0-0.9,0.1-1.2,0.2-0.8l0,1.9C304.3,313.6,304.2,313.2,304.2,312.3z
		 M305.4,181.4c-0.2-0.4-0.2-0.3-0.2,0.3c0,0.7,0.1,1,0.2,0.8C305.8,182.2,305.8,181.8,305.4,181.4z M305.6,303.1
		c0-1.1,0.2-2,0.5-2.8l0.5-1.1l0,1.1c0,0.7-0.2,1.7-0.5,2.8l-0.5,1.4L305.6,303.1z M306.4,177.2c0-0.4,0-0.5-0.1-0.4
		c-0.1,0.1-0.1,0.3-0.1,0.7c0,0.4,0,0.7,0.1,0.8c0.1,0.2,0.1,0.2,0.1,0C306.7,178,306.7,177.6,306.4,177.2z M307.8,254.2
		c0-0.7-0.2-0.3-0.7,1.4c-0.5,1.7-0.7,3-0.7,3.9c0,0.4,0.1,0.5,0.2,0.3c0.2-0.2,0.3-0.7,0.5-1.7
		C307.6,256.4,307.8,255.1,307.8,254.2z M309.2,170.6c1.1-3.5,1.4-5.3,0.9-5.3c-0.5,0-0.9,0.5-1.3,1.4c-0.4,0.9-0.7,2-1.1,3.3
		c-0.3,1.3-0.6,2.5-0.8,3.6c-0.2,1.1-0.3,1.9-0.3,2.2c0,0.7,0.2,0.6,0.7-0.6C307.8,174.2,308.4,172.6,309.2,170.6z M308.2,286.7
		c0.3-3.9,0.6-6.5,0.8-7.9c0.2-1.4,0.5-2.5,0.8-3.2l0.2-0.6l0.2-0.3c0.2,0,0.2,0.9,0,2.8c0,0.9-0.1,2.1-0.3,3.6
		c-0.2,1.5-0.5,2.8-0.8,3.9c-0.5,2.4-0.8,3.6-0.9,3.6L308.2,286.7z M311.1,237.5c0.3-1.1,0.6-2.1,0.8-2.9c0.2-0.8,0.4-1.4,0.6-1.8
		c0.2-0.2,0.3-0.8,0.5-1.8c0.2-1,0.4-2.3,0.7-3.8c0.3-1.5,0.6-3.2,0.9-5.3c0.3-2,0.6-3.8,0.9-5.3c0.3-1.5,0.5-2.8,0.7-4
		c0.2-1.2,0.2-1.8,0-1.8c-0.3-0.4-0.8,1.4-1.4,5.3c-0.3,2-0.7,4.1-1.2,6.1c-0.5,2-0.7,2.8-0.7,2.2c0-0.4-0.2-0.2-0.5,0.4
		c-0.3,0.7-0.6,1.6-0.9,2.8c-0.3,1.2-0.6,2.5-0.8,3.8c-0.2,1.3-0.4,2.4-0.6,3.3c-0.3,2.2-0.5,3.9-0.5,5c-0.2,1.3-0.2,1.9,0,1.9
		C310.2,241.7,310.6,240.3,311.1,237.5z M311.8,163.9l1.2-0.8l-1.4,0c-1.1,0.4-1.7,0.7-1.7,0.8c-0.2,0.6-0.1,0.8,0.2,0.8
		C310.6,164.7,311.2,164.4,311.8,163.9z M311,269.8c0-1.1,0.2-3,0.6-5.6c0.4-2.6,0.7-4.3,1.1-5c0.2-0.4,0.3-0.8,0.4-1.4
		c0.1-0.6,0.3-1.2,0.6-1.9c0.2-0.4,0.2-0.8,0.2-1.4c0.2,0,0.2-0.1,0.2-0.3c0.2,0,0.1,0.8-0.1,2.5s-0.6,3.8-1.1,6.4
		c-0.9,5.2-1.6,7.8-1.9,7.8L311,269.8z M314,252.5c0-0.9,0.2-1,0.5-0.3c0,0.7-0.1,1.1-0.2,1.1c0,0.2,0,0.2-0.1,0
		C314.1,253.2,314,252.9,314,252.5z M314.7,249.7c0-1.7,0.1-2.7,0.2-3.1l0.5-1.1l0,1.1c0,0.6-0.2,1.6-0.5,3.1l-0.2,1.7L314.7,249.7z
		 M318.4,201.9c0-0.7-0.1-1.1-0.2-1.1c-0.3,0-0.6,1.4-0.9,4.2L317,208l0.7-2.2C318.1,204.7,318.4,203.4,318.4,201.9z M319.2,164.1
		c-0.5-0.6-1,0.4-1.7,2.8c-0.3,1.5-0.5,2.5-0.5,3.1l0.9-2.2C318.8,165.9,319.2,164.7,319.2,164.1z M320.1,142.2
		c0.6,0,1.2-0.4,1.8-1.1c0.6-0.7,0.7-1.3,0.3-1.7c0-0.2-0.2-0.3-0.5-0.3c-0.6,0-1.4,0.3-2.3,1c-0.9,0.7-1.5,1.2-1.8,1.5
		c-0.3,0.7-0.2,1,0.2,0.8C318.2,142.3,319,142.2,320.1,142.2z M318.6,198.9c-0.3,1.1-0.2,1.4,0.2,0.8l0-1.1
		C318.7,198.2,318.6,198.3,318.6,198.9z M320,194.4l0.9-5.6c-0.2,0-0.4,0.4-0.7,1.1c-0.3,0.9-0.7,2.4-1.1,4.4
		c-0.4,2-0.4,3.1-0.1,3.1L320,194.4z M320.4,161.3l-0.2-0.3l-0.5,0c-0.5,0-0.7,0.2-0.7,0.6c0,0.4,0.2,0.5,0.7,0.3
		C320.1,161.9,320.4,161.7,320.4,161.3z M320.1,220.8c0-0.4,0-1,0.1-1.8c0.1-0.8,0.2-1.7,0.3-2.6c0.5-2.2,0.7-3.9,0.7-5
		c0-0.9,0.2-1.4,0.5-1.4c0.2,0,0.2-0.5,0.2-1.4c0-1.1,0.2-1.8,0.7-1.9c0.3-0.2,0.4,0,0.4,0.4c-0.1,0.5-0.5,2.7-1.3,6.8
		c-0.9,5-1.5,7.5-1.6,7.5L320.1,220.8z M323.5,178c0.3-1.7,0.6-3.1,0.9-4.4c0.3-1.3,0.4-2,0.2-2.2c-0.3-0.4-0.5,0-0.5,1.1
		c-0.3,0.7-0.6,1.1-0.7,1.1c-0.3,0-0.7,0.8-1.1,2.4c-0.4,1.6-0.7,3.2-0.8,4.9c0,2-0.1,3.8-0.5,5.3c0,0.4,0,0.6-0.1,0.7
		c-0.1,0.1-0.1,0.2-0.1,0.4c0,0.2,0,0.4,0,0.6l0.5-1.4c0.2-0.4,0.4-1.4,0.8-3.1C322.6,181.6,323.1,179.9,323.5,178z M337.7,137.7
		c2.7-0.6,5.8-1.2,9.3-2c3.5-0.7,6.9-1.5,10.4-2.1c3.4-0.7,6.6-1.3,9.6-1.8c3-0.6,5.5-0.9,7.4-1.1l5-1.1c-0.2,0-1,0.1-2.4,0.1
		c-1.4,0.1-3.3,0.3-5.5,0.6c-2.2,0.3-4.6,0.6-7.3,1c-2.6,0.4-5.3,0.8-8,1.1c-11.3,2.1-19,3.5-23.3,4.3c-4.3,0.8-6.6,1.3-6.9,1.7
		c-0.5,0-0.7,0.5-0.7,1.4c0,0.6,0.2,0.8,0.5,0.8c0.3,0,0.6-0.1,1-0.3c0.5-0.2,1.7-0.5,3.8-1C332.6,138.8,335,138.2,337.7,137.7z
		 M347,155.7c3.6-0.9,7.7-1.8,12.3-2.7c4.5-0.8,8.1-1.6,10.8-2.1c8.4-1.5,14.8-2.7,19-3.7c4.3-0.9,6-1.4,5.2-1.4l-0.5,0
		c-1.1,0-3.4,0.3-6.9,1c-3.5,0.7-7.5,1.4-11.9,2.3c-4.4,0.8-9.1,1.8-14,2.8c-4.9,1-9.4,2-13.4,2.8c-4,0.8-7.5,1.6-10.2,2.3
		c-2.8,0.7-4.2,1.1-4.4,1.3c-0.2,0.2-0.2,0.3-0.1,0.4c0.1,0.1,0.6,0,1.5-0.1c1-0.2,2.4-0.5,4.4-1C340.8,157.1,343.5,156.5,347,155.7
		z M337.7,152.7c0.8-0.2,1.1-0.3,1-0.3c-0.2,0-0.8,0-1.9,0c-1.9,0.4-3,0.8-3.3,1.1C332.5,154.3,333.9,154,337.7,152.7z M415.4,152.1
		l0.7-0.3c0.3-0.2,1-0.5,1.9-0.8c0.8-0.4,1.5-0.7,2.1-0.8c0.6-0.2,1.1-0.4,1.4-0.6c0.6-0.4,0.7-0.3,0.2,0.3
		c-0.3,0.4-1.4,0.9-3.3,1.7c-1.6,0.6-2.5,0.9-2.7,1C415.5,152.6,415.4,152.5,415.4,152.1z"/>
	<path class="st0" d="M385.7,389.8c-0.5-1.1-0.7-1.9-0.7-2.5l-0.5-1.9L384,387l0,0.6l-0.2,0.3l-0.2,0.3c-0.2,0-0.4-0.3-0.7-0.8
		c-0.3-0.4-0.6-0.9-0.7-1.5c-0.2-0.6-0.4-1.2-0.7-1.8c-0.2-0.6-0.3-2.6-0.5-6c-0.2-3.4-0.3-7.3-0.4-11.7c-0.1-4.4-0.2-8.6-0.3-12.8
		c-0.1-4.2-0.1-7.3-0.2-9.3c0.2-1.1,0.2-2.3,0.1-3.6c-0.1-1.3-0.1-2.3-0.1-3.1l-0.2-2.5l-4,7c-0.9,2-1.9,3.9-2.8,5.4
		c-0.9,1.6-1.6,2.6-1.9,2.9c-0.3,0.4-0.1-0.2,0.7-1.7c0.8-1.5,1.9-3.5,3.3-6.1c1.3-2.4,2.4-4.5,3.3-6.4c0.9-1.9,1.4-3,1.4-3.3
		c-0.2-0.6-1.2,0.9-3.1,4.5c-0.8,1.5-2,3.7-3.6,6.7c-1.6,3-3.2,5.8-4.7,8.4c-2.2,3.7-3.9,6.5-5.1,8.4c-1.2,1.8-2.4,3.4-3.7,4.7
		c-1.4,1.3-2.5,2.2-3.2,2.7c-0.7,0.5-1.6,0.7-2.7,0.7c-1,0-1.7-0.1-2.4-0.3l-1.4,0c-1.1,0-2.1,0.2-3.1,0.6c-0.6,0.4-1.6,0.6-2.9,0.6
		c-3.2,0-6.2-1.6-9.1-5c-2.9-3.3-4.9-6.5-6.2-9.4c-1.4-3.7-2.5-7.2-3.1-10.4c-0.6-3.2-1.1-7.5-1.2-12.6c-0.3-5.4-0.2-10,0.4-14
		c0.6-4,1.8-9.2,3.5-15.7c0.3-1.3,1.1-3.7,2.2-7.1c1.2-3.4,2.5-7,4-10.6c1.5-3.6,3.1-6.8,4.8-9.6c1.7-2.8,3.4-4.2,5-4.2
		c0.3,0,0.5,0.2,0.5,0.6c0,0.6-0.5,1.9-1.4,3.9c-0.9,2-1.7,3.4-2.4,4.2c-1.4,1.9-2.8,4.5-4.1,7.9c-1.3,3.4-2.5,7.1-3.5,11
		c-1,3.9-1.9,7.7-2.6,11.5c-0.7,3.8-1.1,7-1.3,9.6l-0.2,3.3l0.7-3.9c1.2-6.5,2.9-12.8,4.8-19.1c2-6.2,4.5-12.2,7.7-18
		c1.6-2.4,2.4-4.1,2.4-5c0-0.7,0.6-1.8,1.9-3.1c1.3-1.3,2.2-1.9,2.9-1.7c0.5,0.2,0.6,1,0.5,2.5c-0.2,1.5-0.5,3-1.2,4.6
		c-0.6,1.6-1.1,2.2-1.4,1.8c-0.2-0.2-0.3-0.2-0.4-0.1c-0.1,0.1,0,0.3,0.1,0.7c0.2,0.7,0.1,1-0.2,0.8c-0.3-0.6-0.4-0.4-0.2,0.6
		c0.3,0.6,0.2,0.7-0.2,0.6c-0.3-0.2-0.4,0-0.2,0.6c0.3,0.6,0.2,0.7-0.2,0.6c-0.5-0.2-0.6,0-0.2,0.6c0.2,0.7,0,0.9-0.5,0.6
		c-0.3-0.2-0.4-0.1-0.2,0.3c0.2,0.2,0.2,0.6,0,1.3c-0.2,0.6-0.4,1.3-0.7,2.1c-0.8,1.9-1.2,3-1.2,3.3c0.3,0.4,0.2,0.6-0.2,0.6
		c-0.3,0-0.5,0.4-0.5,1.1c0,0.9-0.3,1.9-0.9,3.1c-0.2,0.7-0.5,1.9-0.9,3.6c-0.5,1.7-0.9,3.5-1.3,5.4c-0.4,1.9-0.7,3.8-1.1,5.6
		c-0.3,1.8-0.5,3.1-0.7,4l-0.2,3.1l0.7-3.6c0.6-2.4,1-3.8,1.1-4.2c0.1-0.4,0.2-0.8,0.4-1.4c0.2-0.4,0.4-1.3,0.8-2.8
		c0.4-1.5,0.8-3.2,1.3-5.3c0.8-2.8,1.7-5.7,2.7-8.8c1-3.1,2-5.9,2.9-8.5c0.9-2.6,1.9-4.8,2.8-6.7c0.9-1.8,1.7-3.1,2.1-3.6
		c0.2-0.2,0.4-0.3,0.7-0.3c0.3,0,0.6,0.2,1,0.6c0.6,0.9,0.8,1.6,0.5,1.9c-0.2,0.4-0.1,0.5,0.2,0.3c0.3-0.4,0.4-0.3,0.4,0.1
		c-0.1,0.5-0.5,1.7-1.3,3.8c-0.8,2-1.7,4.9-2.8,8.5c-1.1,3.6-2.1,7.3-3.1,11c-0.9,3.7-1.7,7.1-2.3,10.2c-0.6,3.1-0.9,5.1-0.9,6
		c0,0.4,0.2-0.2,0.6-1.8c0.4-1.6,0.9-3.6,1.5-6c2.2-10.6,4.8-19.6,7.8-27c1.1-2.4,1.7-3.6,1.9-3.6c0.5,0,0,2.1-1.4,6.4
		c-2.7,8.5-4.9,17.6-6.6,27.1c-1.7,9.5-2.6,17.4-2.8,23.5c0,0.9,0.1,2.3,0.3,4.2c0.2,1.9,0.4,3.7,0.6,5.6c0.2,1.9,0.4,3.5,0.6,5
		c0.2,1.5,0.3,2.3,0.5,2.5c0.3,0.6,1.3-0.1,2.9-2.1c1.6-1.9,3.5-4.7,5.7-8.4c2.2-3.6,4.7-7.9,7.5-12.8c2.8-4.9,5.5-10,8.2-15.2
		c1.3-2.4,2.7-5.3,4.3-8.8c1.6-3.4,3.2-6.9,4.7-10.4c1.6-3.5,3-6.7,4.1-9.5c1.2-2.8,1.9-4.7,2.2-5.8c0.5-1.5,1.2-2.8,2.2-4
		c1-1.2,1.9-1.8,2.7-1.8c0.6,0,1,0.2,1,0.6c0,0.4-0.3,1.8-0.9,4.2c-0.6,2.4-0.8,3.6-0.5,3.6c0.6,0,1.5-1.1,2.6-3.3
		c1.1-2,2.1-3.1,2.8-3.1c0.6,0,1,0.7,1,2.2c0,1.1,0.1,1.7,0.2,1.7c0.2,0,0.5-0.3,1-0.8c0.3-0.4,0.6-0.6,0.9-0.6c0.5,0,1,0.2,1.7,0.7
		c0.6,0.5,1,1.1,1,1.8c0,0.6,0.1,0.7,0.2,0.6c0.6,0,1.1,0.2,1.4,0.6c0.3,0.2,0.5,0.5,0.6,1c0.1,0.5,0,1.4-0.1,2.9
		c-0.2,1.5-0.5,3.8-0.9,6.8c-0.5,3.1-1.2,7.3-2.1,12.6c-1.4,7.8-2.4,15.2-3.1,22.2c-0.7,7-1.3,15.5-1.7,25.3
		c-1,23.3-1.7,35.5-2,36.4l-0.5,0.6c-0.5,0-0.7-0.8-0.7-2.5l0-1.7l-0.7,1.4c-0.5,0.9-0.9,1.4-1.4,1.4c-1,0-1.4-1-1.4-3
		c0-0.6-0.1-0.8-0.2-0.8c-0.3,0-0.9,1.1-1.7,3.3c-0.5,2-1,3.1-1.7,3.1C386.4,390.6,386,390.4,385.7,389.8z M344.3,318.5
		c0-0.4,0-0.5-0.1-0.3c-0.1,0.2-0.1,0.5-0.1,0.8c0,0.4,0,0.6,0.1,0.8c0.1,0.2,0.1,0.2,0.1,0C344.6,319.4,344.6,318.9,344.3,318.5z
		 M347.5,348.3c-0.2-0.6-0.2-1.4-0.2-2.5c0-1.1,0-2.2,0-3.3c0-2.8-0.2-4.2-0.5-4.2c-0.3,0-0.4-0.9-0.4-2.6c0.1-1.8,0.4-5.3,1-10.7
		c0.6-5,1.6-10.7,2.9-17.2c1.3-6.5,2.6-11.9,3.9-16.1c1.6-4.8,2.6-7.9,2.9-9.2c0.4-1.3,0.7-1.9,0.8-1.9c0.2,0.2,0.1,0.9-0.2,2.2
		c-3.8,10.8-6.4,21.8-7.7,33.1c-1.4,11.3-2.1,22.8-2,34.5L347.5,348.3z M357,348.8c1.3-1.7,3.3-4.9,6.2-9.6
		c2.8-4.7,5.7-9.8,8.6-15.2c2.9-5.4,5.5-10.5,7.7-15.3c2.2-4.8,3.3-8.3,3.3-10.3c0-0.4-0.6,0.6-1.9,2.9c-1.3,2.3-2.8,5.2-4.5,8.8
		c-4.6,9.5-8.5,17.3-11.7,23.4c-3.2,6.1-6.1,11.1-8.6,15c-1.4,2.2-2,3.3-1.7,3.3C354.7,351.9,355.6,350.8,357,348.8z M367,356
		l1.4-1.7c0.2-0.2,0.3-0.4,0.5-0.6l-1.2,2.2c-0.3,0.6-0.7,1.1-1.2,1.7c-0.3,0.4-0.6,0.6-0.7,0.8L367,356z M370.8,344.9
		c0.9-1.7,1.9-3.4,3-5.3c1-1.9,2-3.6,3-5.3c0.9-1.7,1.7-3.2,2.2-4.5c0.5-1.3,0.8-2.1,0.8-2.5c0-0.2-0.4,0.4-1.2,1.8
		c-0.8,1.4-1.7,3.1-2.8,5.2c-1.3,2-2.6,4.3-3.9,6.8c-1.3,2.5-2.4,4.4-3.2,5.7c-0.8,1.3-1.4,2.4-1.8,3.2c-0.4,0.8-0.4,1.1-0.1,0.7
		c0.3-0.4,0.9-1.1,1.7-2.1C369.2,347.6,370,346.3,370.8,344.9z M369.3,337.1c2.2-3.3,4.2-6.7,5.9-10.2c1.7-3.4,2.4-5.3,2.1-5.7
		c-0.2-0.2-0.2-0.3-0.1-0.4c0.1-0.1,0.2,0,0.4,0.1c0.3,0.4,0.7,0.1,1.2-0.7c0.5-0.8,0.5-1.4,0.2-1.8c-0.3-0.4-0.2-0.6,0.2-0.6
		c0.3,0.2,0.6-0.4,0.9-1.7c0-0.9-0.1-1.4-0.2-1.4l-0.2,0.3c0,0.2-0.1,0.4-0.2,0.6c-0.8,1.5-1.5,3-2.2,4.6c-0.7,1.6-1,2.4-0.8,2.4
		c0.2,0,0.1,0.3-0.2,0.8c-0.2,0.2-0.8,1.2-1.8,3.1c-1,1.9-2.1,3.9-3.3,6.1c-1.2,2.2-2.6,5.1-4.4,8.6c0.3-0.4,0.6-0.8,0.9-1.4
		C368.3,339.1,368.9,338.2,369.3,337.1z M390.1,353.4c0-0.4-0.1-0.6-0.2-0.6c-0.1,4.3-0.3,7.8-0.3,10.6c-0.1,2.8-0.1,5.6-0.1,8.5
		c0,2.9,0.1,5,0.3,6.5c0,0.7,0.1,1.2,0.2,1.4c0,0.2,0,0.4,0,0.6c0-0.7,0-1.6,0-2.5c0-0.9,0-2,0.1-3.2c0.1-1.2,0.1-2.7,0.1-4.6
		c0.1-3.7,0.2-7.2,0.2-10.4C390.4,356.4,390.3,354.3,390.1,353.4z M393.5,379.8c0-0.4,0-0.5-0.1-0.4c-0.1,0.1-0.1,0.3-0.1,0.7
		c0,0.6,0.1,0.8,0.2,0.8C393.9,380.5,393.9,380.1,393.5,379.8z M398,360.3c0-1.1,0.1-1.5,0.2-1.1l0,2.5
		C398.1,362.1,398,361.6,398,360.3z M398.4,349.8l0-2.5h0.2v0.6l0,4.2C398.5,352.7,398.4,352,398.4,349.8z M398.9,340.6
		c0-2,0.1-5,0.4-8.8c0.3-3.8,0.7-7.7,1.1-11.7c0.5-4,1-7.8,1.5-11.5c0.5-3.7,1.1-6.4,1.5-8.1c0.5-4.4,1.3-8.7,2.6-12.8
		c0.2,0,0.1,1.2-0.2,3.5c-0.3,2.3-0.8,5.3-1.4,9c-1.4,8.5-2.6,16.5-3.5,23.8c-0.9,7.3-1.5,13.5-1.8,18.5l0,0.6h-0.2L398.9,340.6z"/>
	<path class="st0" d="M421.6,361.1c0.3,0,1.1-0.1,2.4-0.4c1.3-0.3,2.6-0.7,4-1.1c1.4-0.5,2.8-0.9,4-1.3c1.3-0.4,2.1-0.7,2.4-0.8
		c0.5-0.4,0.5-0.8,0.2-1.4c-0.3-0.6-1-0.8-1.9-0.8c-1,0-1.4-0.6-1.4-1.7c0-0.9-0.2-1.4-0.5-1.4l-0.5,0.3c0,0.4-0.4,1.2-1.2,2.5
		c-0.5,1.1-0.9,1.7-1.2,1.7l-0.2-0.3c-0.2,0-0.3-0.1-0.5-0.3c-0.8-0.6-1.2-1.6-1.2-3.1c0-0.4,0-0.6-0.1-0.7
		c-0.1-0.1-0.1-0.2-0.1-0.4l0-0.3l-0.5,1.1c-0.3,0.7-0.7,0.8-1.2,0.3c-0.3-0.4-0.5-1.9-0.6-4.7c-0.1-2.8-0.2-7.7-0.4-14.7
		c0-9.3,0-17.9,0.1-25.8c0.1-8,0.5-15.6,1.1-22.8c0.6-7.2,1.4-14.3,2.3-21.1c0.9-6.9,2.1-14,3.5-21.4c0.6-3.1,1.8-8.7,3.5-16.5
		c1.7-7.9,3.8-15.9,6.3-24.2c2.5-8.2,5.3-15.7,8.3-22.4c3-6.7,6-10.5,9-11.4c0.3,0.4-0.4,2-2.1,5c-1.9,3.2-4,7.9-6.3,14.2
		c-2.3,6.3-4.4,13-6.5,20c-2,7-3.8,13.9-5.3,20.6c-1.5,6.7-2.4,12.1-2.7,16.1c0.3,0,1.3-3.6,2.8-10.8c2.3-10.7,4.8-20.7,7.3-29.9
		c2.5-9.2,4.9-16.2,7.1-21c1.1-2.6,2.7-5.2,4.9-7.8c2.1-2.6,3.6-3.9,4.4-3.9c0.3,0,0.5,0.2,0.5,0.6c0,0.6-0.6,1.9-1.7,4.2
		c-0.9,1.9-2.2,5.4-3.9,10.7c-1.6,5.3-3.3,10.9-4.9,16.8c-1.6,5.9-3.1,11.5-4.3,16.8c-1.3,5.3-1.9,8.9-1.9,10.7
		c0.3-1.1,0.6-2.4,0.9-3.9c0.3-1.5,0.7-3.1,1.3-5c0.5-1.8,1.1-4.1,1.8-6.7c2.8-11.7,5.2-20.5,7.1-26.4c1.9-5.9,3.8-10.7,5.7-14.2
		c0.5-1.1,0.9-1.7,1.2-1.7c0.2,0,0.3,0.1,0.5,0.3c0.5,0.6,0.7,1.3,0.7,2.2c0,0.9,0.3,1.3,1,1.1c0.5,0,0.7,0.1,0.7,0.3
		c-0.2,0.6-0.5,2.2-1.1,5c-0.6,2.8-1.1,5.4-1.8,7.8c-0.5,2-1.1,5-2,8.9c-0.9,3.9-1.8,8.2-2.8,12.8c-1,4.6-2,9.3-2.9,14
		c-0.9,4.7-1.8,8.9-2.6,12.7c-0.6,3.5-1.4,7.7-2.3,12.7c-0.9,4.9-1.8,9.6-2.6,14c-0.8,4.4-1.6,9.9-2.6,16.4c0.3,0.4,0.7-0.1,1.2-1.5
		c0.5-1.4,0.9-3.1,1.2-5.1c0.3-2,0.7-4.4,1-7c0.4-2.6,0.8-5,1.3-7.1c0.5-2.1,0.9-3.9,1.2-5.3c0.3-1.4,0.5-1.9,0.5-1.5
		c0,0.2-0.2,1.5-0.5,3.9c-0.3,2.4-0.8,5.3-1.4,8.6c-0.3,1.5-0.5,3-0.7,4.4c-0.2,1.5-0.4,2.8-0.7,3.9c-0.2,1.3-0.3,2.5-0.5,3.6
		c0.3,0.2,1.2-0.6,2.6-2.2c1.7-1.5,3.6-2.8,5.5-4.1c1.9-1.2,3.6-2,5.2-2.4c0.5-0.2,1.3-0.3,2.6-0.3c1.7,0,3.7,0.2,6,0.7
		c2.2,0.5,4.2,1.1,6,2.1c3.2,1.7,6,3.7,8.4,6.2c2.4,2.5,3.3,4.5,2.9,6c-0.3,0.7-0.3,0.9,0,0.6c0.3-0.4,0.7,0.2,1.1,1.8
		c0.4,1.6,0.7,3.4,0.9,5.4c0.3,2,0.3,5.3-0.1,9.7c-0.4,4.4-0.9,8.2-1.5,11.4c-1.3,5.7-3,11.6-5.2,17.5c-2.2,5.9-4.6,11.3-7.3,16.1
		l-0.5,1.1l-0.2,0.3l0.2-0.3c0.2-0.2,0.3-0.3,0.5-0.3c0.8-0.7,1.7-2.1,2.8-4c1.1-2,2.2-4.2,3.4-6.8c1.2-2.6,2.3-5.3,3.4-8.2
		c1.1-2.9,2-5.7,2.8-8.5c0.5-2,0.9-3.5,1.2-4.3c0.3-0.8,0.5-0.9,0.5-0.1c-0.8,5.7-2.5,11.6-5.3,17.7c-2.8,6-6.1,11.6-9.9,16.7
		c-3.9,5.1-8.3,9.5-13.2,13.1c-4.9,3.6-9.9,6-15,7.1c-1.3,0.2-3.2,0.4-5.8,0.6s-5.2,0.3-7.7,0.3c-1.1,0-2.1,0-3,0
		c-0.9,0-1.7-0.1-2.5-0.3c-2.1-0.2-3.4-0.4-4.1-0.5c-0.6-0.2-1-0.6-1-1.4c0-0.7-0.4-1.1-1.2-1.1c-1.3-0.2-1.7-1.2-1.2-3.1
		C419.2,362,420.2,361.1,421.6,361.1z M433.8,250.1c0.3-0.4,0.3-0.8,0-1.4c-0.2-0.2-0.2,0-0.2,0.6
		C433.6,249.9,433.7,250.1,433.8,250.1z M434.3,247.1c0.3-0.4,0.3-0.7,0-1.1c0-0.4,0-0.5-0.1-0.4c-0.1,0.1-0.1,0.3-0.1,0.7
		C434.1,246.8,434.1,247.1,434.3,247.1z M435.9,356.6l2.1-0.8c1.4-0.4,2.6-0.9,3.6-1.7c6.7-3.9,12.2-10,16.7-18.4
		c4.5-8.4,7.8-18.5,9.8-30.3c0.3-1.8,0.5-3.9,0.7-6.3c0.1-2.3,0.3-4.6,0.3-6.8c0.1-2.2,0.1-4.2,0-5.8c-0.1-1.7-0.3-2.9-0.6-3.6
		c-0.3-0.9-0.6-1.4-1-1.4l-1.4,0.6c-3,1.9-6,4.6-8.9,8.2c-2.9,3.6-5.7,7.6-8.2,11.8c-2.5,4.3-4.6,8.7-6.3,13.2
		c-1.7,4.5-2.6,8.7-2.9,12.4c0,0.4,0,0.6-0.1,0.7c-0.1,0.1-0.1,0.2-0.1,0.4v0.3c0.2-0.2,0.2-0.4,0.2-0.6c0.2-0.4,0.4-1.1,0.7-2.2
		c0.8-3,1.4-4.8,1.9-5.6l0.7-1.1l-0.5,1.1c-0.2,0.4-0.3,0.9-0.4,1.5c-0.1,0.6-0.3,1.3-0.6,1.8c-0.2,0.6-0.4,1.3-0.6,2.4
		c-0.2,1-0.5,2-0.8,2.9c-0.5,2-0.9,4.3-1.3,6.8c-0.4,2.5-0.7,6.1-1,10.7c-0.3,1.9-0.5,3.6-0.7,5.1c-0.2,1.6-0.4,2.6-0.7,3.2
		L435.9,356.6z M444.3,309.6c0.9-2.2,2-4.6,3.2-7.1c1.2-2.5,2.2-4.5,3-6c0.8-1.5,1.6-2.9,2.5-4.3c0.9-1.4,1.5-2.4,1.8-2.9l1.7-2.5
		l-1.9,2.2c-0.6,0.6-1.3,1.4-2.1,2.6c-0.8,1.2-1.6,2.5-2.4,3.8c-1.7,3-2.8,4.6-3.3,5c-0.5,0.6-1,1.6-1.7,3.2
		c-0.6,1.6-1.1,2.8-1.4,3.8c0,0.6-0.2,1.3-0.5,2.4c-0.3,1-0.6,2-0.9,2.9l-1.2,2.8c-0.2,0.4-0.2,0.7-0.2,1.1
		C441.2,316.5,442.4,314.2,444.3,309.6z M443.1,300.1c0.5-1.1,0.6-1.7,0.5-1.7c0,0.2-0.1,0.4-0.2,0.6c-0.5,0.6-0.9,1.4-1.2,2.5
		c0,0.2,0,0.3-0.1,0.4c-0.1,0.1-0.1,0.2-0.1,0.4v0.3l0.2-0.6c0.2-0.4,0.3-0.7,0.5-1C442.7,300.8,442.9,300.5,443.1,300.1z
		 M444.4,289.6c0.6-1.1,0.9-1.9,0.9-2.2c0-0.4-0.4-0.1-1.2,0.8c-0.6,1.1-0.9,1.9-0.9,2.2C443.3,290.8,443.7,290.5,444.4,289.6z
		 M445.4,295.7c0.3-0.4,0.5-0.6,0.5-0.8v-0.3c-0.2-0.4-0.4-0.1-0.7,0.8C445,296,445.1,296,445.4,295.7z M445.5,312.3
		c0-0.6,0.2-1.1,0.7-1.7c0.5-0.7,0.6-0.6,0.2,0.3C445.8,312.4,445.5,312.9,445.5,312.3z M446.3,285.9c0,0.7,0.2,0.7,0.7,0
		c0.2-0.4,0.3-0.7,0.5-1.1c0.2-0.4,0.3-0.7,0.5-1.1c0.3-0.7,0.2-0.7-0.5,0C446.7,284.3,446.3,285,446.3,285.9z M449,304.3
		c0.2-0.2,0.2-0.3,0.2-0.4c0-0.1,0.1-0.2,0.2-0.4l0.2-0.3c0.2,0,0.1,0.4-0.2,1.1c0,0.4-0.2,0.7-0.5,1.1l-0.2,0.3
		C448.6,305.7,448.7,305.2,449,304.3z M451.5,249.5c0.2-0.6,0.3-1.5,0.5-2.8c0.2-1.3,0.3-2.6,0.5-3.9c0.3-2.2,0.9-5.7,1.9-10.6
		c0.9-4.8,2-9.6,3-14.3c1.1-4.7,2-8.8,2.8-12.1c0.8-3.3,1.2-4.5,1.2-3.6c0,0.2-0.1,1.1-0.3,2.6c-0.2,1.6-0.6,3.4-1.1,5.4
		c-0.5,2-1.2,5.4-2.1,10c-0.9,4.6-1.8,9.3-2.6,13.9c-2.3,11.7-3.7,17.5-4,17.5l0-0.6c0-0.4,0-0.6,0.1-0.8
		C451.4,250.2,451.5,249.9,451.5,249.5z M451.6,299.5c0-0.2,0.2-0.6,0.6-1.4c0.4-0.7,0.7-1.2,0.8-1.4c0.3,0,0.2,0.4-0.2,1.1
		C452,299.4,451.6,299.9,451.6,299.5z M453.5,295.6l0.2-0.3c0.3-0.4,0.6-0.6,0.7-0.6c0.5-0.6,0.6-0.5,0.2,0.3
		C453.9,296,453.5,296.2,453.5,295.6z M462.5,339.8c2.2-3.3,4.2-7.6,5.9-12.7c1.7-5.1,3-10.6,3.8-16.6c0.8-4.6,1-6.9,0.7-6.9
		c-0.2,0-0.5,1.3-0.9,3.9c-0.5,1.7-1,3.8-1.6,6.3c-0.6,2.5-1.3,5-2.1,7.5c-0.8,2.5-1.5,4.8-2.2,6.8c-0.7,2-1.3,3.6-1.8,4.7
		c-0.3,0.9-0.8,2.1-1.5,3.5c-0.7,1.4-1.4,2.6-2,3.8c-1.7,3.2-2.4,4.7-2.1,4.7C458.8,344.8,460.1,343.1,462.5,339.8z M462.2,197.5
		c0.2,0.6,0.2,0.9,0,1.1c-0.2,0.2-0.2-0.1-0.2-0.8c0-0.4,0-0.6,0.1-0.7C462.2,197,462.2,197.2,462.2,197.5z M472.9,329.2
		c0.2,0.7,0.5,0.6,1-0.3c0.6-0.7,1.3-2.3,2-4.6c0.7-2.3,1.4-4.8,2-7.4c0.6-2.6,1.2-5.1,1.6-7.5c0.5-2.4,0.7-4.1,0.7-5
		c-0.2-1.5-0.3-2-0.5-1.7c0,0.4-0.2,1.3-0.6,2.8c-0.4,1.5-0.7,3.2-1.1,5c-0.5,1.9-0.9,3.6-1.2,5.1c-0.3,1.6-0.5,2.6-0.5,2.9
		c-0.2,1.1-0.3,2.1-0.6,2.9c-0.2,0.8-0.5,1.2-0.8,1c-0.5-0.6-0.5-0.3,0,0.8c0.3,1.1,0.2,1.4-0.2,0.8c-0.3-0.2-0.4,0.1-0.2,0.8
		c0.3,0.7,0.2,0.9-0.5,0.6c-0.3-0.4-0.5-0.5-0.5-0.4c0,0.1,0.1,0.2,0.2,0.4c0.3,0.4,0.4,1,0.1,1.9c-0.2,0.9-0.5,1.2-0.8,0.8
		C472.7,328,472.6,328.3,472.9,329.2z M474.4,340.6c0.2-0.4,0.4-0.8,0.7-1.4c0.6-0.7,1.2-1.7,1.7-2.8c2.2-4.1,4.1-8.5,5.6-13.2
		c1.5-4.7,2.4-8.9,2.7-12.4l0-1.7l-0.2,0.8c0,0.6-0.2,1.6-0.7,3.1c-0.8,3.5-1.8,7.2-3.1,11.1c-1.3,3.9-2.8,7.5-4.5,10.9
		c-0.6,1.5-1.2,2.8-1.7,3.9C474.4,340,474.2,340.6,474.4,340.6z"/>
	<path class="st0" d="M535.4,356.8c-5.6-0.5-9.8-1.5-12.6-3c-2.9-1.5-6-4.1-9.3-8c-3.7-4.6-6.3-8.7-8-12.2
		c-1.7-3.5-2.9-8.1-3.7-13.9c-2.8-17,0.3-33.2,9.1-48.4c7.7-13.6,16.5-21.5,26.4-24c0.8-0.2,1.5-0.3,2.3-0.4
		c0.7-0.1,1.5-0.1,2.3-0.1c2.1,0,4.3,0.5,6.7,1.5c2.4,1,4.7,2.3,6.9,4c2.2,1.7,4.2,3.5,6,5.5c1.8,2,3.1,4.2,4.1,6.4
		c0.6,1.5,1,2.5,1.1,3.2c0.1,0.7,0,2-0.3,4c-0.6,3.3-2,7-4.1,11c-2.1,4-4.7,7.6-7.7,10.7c-2.1,2-2.9,3.3-2.6,3.6
		c0,0.2-0.2,0.5-0.7,0.8c-0.3,0-0.9,0.2-1.7,0.7c-0.8,0.5-1.6,0.9-2.4,1.3c-1,0.6-2.2,1.2-3.8,1.8c-1.6,0.7-3.1,1.2-4.5,1.5
		c-1.9,0.7-3.4,1.2-4.6,1.3c-1.2,0.1-2.8,0.1-4.9,0.2l-4.8-0.3l-0.9,4.4c-0.2,1.5-0.4,2.7-0.7,3.6c-0.2,0.4-0.2,0.7-0.2,1.1l0-4.4
		c0-3-0.1-4.4-0.3-4.4c-0.2,0-0.5,2.3-0.9,7c-1.2,11.5,0.3,21,4.6,28.6c1.3,2.2,2.2,3.7,2.9,4.3c0.6,0.6,1.5,1.2,2.6,1.5
		c4.6,0,9.2-1.2,13.8-3.7c2.4-1.5,5.2-3.5,8.6-6.1c3.3-2.6,6.6-5.5,9.9-8.7c3.2-3.2,6.3-6.4,9-9.6c2.8-3.2,4.9-6.3,6.5-9.1
		c2.2-3.7,4.7-7.7,7.5-12c2.8-4.3,4.7-7,5.8-8.1c1.4-1.1,2.2-1.5,2.4-1.1c0.6,0.6-0.8,3.8-4.3,9.7c-1.4,2.2-2,3.3-1.7,3.3
		c0.3-0.4,0.6-0.8,0.9-1.4c0.3-0.4,0.9-1.3,1.9-2.8c2.2-3.5,3.7-5.8,4.6-6.8c0.9-1,1.5-1.3,1.8-1c0.5,0.4,0.4,1.4-0.2,3.1l-1.2,2.8
		l1.7-2.5c0.9-1.3,1.7-1.9,2.4-2c1.1,0,0.9,1.8-0.7,5.3l-1.2,2.8l1.9-2.8c1.1-1.3,1.7-2,1.9-2v0.3c0,0.2-0.1,0.4-0.2,0.6
		c-0.5,1.7-1.4,3.9-2.8,6.8c-1.4,2.9-2.8,5.2-4,7.1c-0.8,0.9-1.7,2.2-2.8,3.9c-1.1,1.7-2.1,3.2-2.8,4.5c-0.8,1.3-1.8,2.8-3,4.5
		c-1.2,1.7-2.2,3-3,3.9c-1.9,2.8-2.8,4.4-2.6,4.7c0.5,0.6,0.4,0.6-0.2,0.3c-0.3-0.4-0.6-0.2-1,0.6c-0.9,0.6-1.3,0.8-1.2,0.8
		c-0.2,0-0.7,0.4-1.5,1.3c-0.9,0.8-1.9,1.9-3.2,3.2c-2.5,2.6-4.4,4.4-5.5,5.3c-1,0.4-1.4,0.7-1.2,0.8c0.3,0.4-0.4,1.1-2.1,2.2
		c-1.4,1.3-2.1,2.1-2.1,2.5c0,0.4-0.6,0.9-1.9,1.7c-0.6,0.4-1,0.7-1.2,0.8c-0.2,0.2-0.3,0.4-0.5,0.6c0,0.2-0.4,0.6-1.3,1.1
		c-0.9,0.6-1.9,1.3-3.2,2.2c-2.2,1.3-4.5,2.4-6.9,3.2c-2.4,0.8-4.2,1.3-5.5,1.3c-0.3,0-1.2,0-2.6-0.1
		C538.8,357.1,537.2,356.9,535.4,356.8z M510.4,285.4c0.5-0.9,0.9-1.9,1.3-2.8c0.4-0.9,0.7-1.6,1.1-1.9c0.9-2,2.8-5,5.7-8.9
		c2.8-3.9,6.2-8,10-12.3c0.8-0.9,1.5-1.8,2-2.5c0.6-0.7,0.7-1.1,0.6-1.1c-0.2-0.4-0.9-0.1-2.3,0.8c-1.4,0.9-2.9,2.1-4.5,3.6
		c-1.7,1.5-3.3,3.1-5,4.9c-1.7,1.8-2.9,3.4-3.7,4.9c-1.3,2-2.4,4.4-3.5,7c-1.1,2.6-2,4.9-2.6,7c-0.9,3.3-1.3,5-1.2,5
		C508.4,289.1,509.1,287.9,510.4,285.4z M519.5,283.5c2.5-5.4,6.1-11.3,10.7-17.8c1-1.1,1.3-1.9,0.9-2.2c-0.2-0.4-0.9,0.2-2.1,1.7
		c-1.3,1.5-2.6,3.2-4,5.2c-1.4,1.9-2.7,3.9-3.8,5.8c-1.1,1.9-1.7,3.2-1.7,3.8c0,0.4-0.2,1-0.6,1.8c-0.4,0.8-0.7,1.8-1.1,2.9
		c-1.9,3.7-2.4,5.6-1.6,5.6c0.2,0,0.6-0.6,1.2-2C518,286.9,518.7,285.3,519.5,283.5z M520.4,278.2c0.3-0.6,0.7-1.2,1.2-2
		c0.5-0.7,0.9-1.4,1.2-1.9c0.3-0.6,0.6-0.8,0.7-0.8c0,0.2-0.1,0.4-0.2,0.6l-0.9,1.7c-1.6,2.8-2.4,4.2-2.6,4.2L520.4,278.2z
		 M525,287.3c1.7-3.9,3.5-7.2,5.2-9.9c1.7-2.7,3.7-5.4,5.9-8.2c2.7-3.2,3.8-4.7,3.3-4.7c-0.2,0-0.3,0.1-0.5,0.3
		c-1.6,1.1-3.2,2.7-4.7,4.7c-1.6,2-3.1,4.2-4.6,6.5c-1.5,2.3-2.8,4.7-4,7.1c-1.2,2.4-2.1,4.6-2.7,6.7c-0.3,0.9-0.3,1.4,0,1.4
		C523,291.2,523.7,289.9,525,287.3z M528.3,288.1c2.5-5.7,6-11.1,10.4-16.2c2.4-2.8,3.3-4.2,2.8-4.2c-0.3,0-1.8,1.3-4.5,3.9
		c-3.5,3.7-6.6,8.5-9.5,14.5c-1.3,3-1.7,4.5-1.2,4.5C527,290.7,527.7,289.8,528.3,288.1z M534.5,287c3.2-2,6.1-4.6,8.7-7.7
		c2.6-3.1,4.3-6,5.1-8.8c0.5-1.5,0.7-2.9,0.8-4.2c0.1-1.3-0.1-1.9-0.4-1.9c-0.2,0-0.7,0.4-1.7,1.1c-1,0.7-2,1.7-3.2,2.8
		c-1.2,1.1-2.4,2.2-3.6,3.3c-1.2,1.1-2.1,2-2.7,2.8c-1.7,2-3.6,4.8-5.4,8.2c-1.9,3.4-2.8,5.6-2.8,6.5C529.2,290,531,289.3,534.5,287
		z M543.5,286.4c1-0.7,1.9-1.6,2.8-2.7c1-1,1.7-1.9,2.1-2.6c0.8-1.5,1.6-3.2,2.4-5.3c0.8-2,1-3.2,0.7-3.6l-2.6,3.9
		c-0.6,1.1-1.5,2.5-2.6,4c-1.1,1.6-2.2,3-3.3,4.3c-0.9,1.1-1.7,2.1-2.4,3.1c-0.6,0.9-0.9,1.4-0.7,1.4c0.2,0,0.6-0.3,1.3-0.8
		C542,287.5,542.7,287,543.5,286.4z M551.9,284.5c0.3,0.2,1.1-0.7,2.5-2.6c1.3-2,2.3-3.5,2.7-4.6l0.9-3.6c-0.3,0-0.8,0.7-1.4,1.9
		c-0.6,0.9-1.3,2-2,3.2c-0.7,1.2-1.5,2.3-2.3,3.2c-1.4,2-2.1,3.3-2.1,3.6c0,0.2,0.2,0,0.7-0.6C551.4,284.5,551.7,284.3,551.9,284.5z
		 M551.9,283.9c0-0.6,0.2-0.9,0.7-1.1c0.6-0.6,0.7-0.5,0.2,0.3C552.2,283.8,551.9,284.1,551.9,283.9z M552.8,295.6
		c1.4-1.3,3.3-3.3,5.6-6.1c2.3-2.8,4-5.2,5.1-7.2c0.3-0.7,0.6-1.3,0.9-1.7c0.3-0.4,0.6-0.7,0.7-1.1c0.3-0.4,0.5-0.7,0.7-1.1
		c0.3,0-0.2,1.2-1.4,3.6c-0.6,1.3-1.5,2.8-2.7,4.5c-1.2,1.7-2.5,3.3-3.8,4.9c-1.3,1.6-2.6,2.8-3.7,3.8c-1.1,0.9-1.9,1.4-2.4,1.4
		L552.8,295.6z M558.3,285.8c0.6-0.9,1.3-2.1,2-3.6c0.7-1.5,1.1-2.4,1.1-2.8l-2.4,3.3c-0.8,1.1-1.6,2.3-2.5,3.5
		c-0.9,1.2-1.6,2.1-2.3,2.6c-1.3,1.5-1.9,2.3-1.9,2.5c0,0.4,0.8-0.2,2.4-1.8C556.3,288,557.5,286.8,558.3,285.8z M553.3,281.4
		l0.9-1.1c0.8-0.9,0.9-0.8,0.2,0.3C553.7,281.9,553.3,282.1,553.3,281.4z M569.6,326.6c1.7-1.9,3.5-3.9,5.3-6.3
		c1.8-2.3,2.6-3.5,2.3-3.5c-0.2,0-0.3,0.1-0.5,0.3c-0.3,0.2-1.9,1.9-4.9,5.2c-2.9,3.3-5.8,6.6-8.7,9.9c-1.6,1.7-2.3,2.5-2.1,2.5
		l0.5-0.3c0.5-0.6,0.9-0.9,1.2-1.1c0.6-0.6,1.6-1.4,3-2.7C567.1,329.5,568.4,328.1,569.6,326.6z M566.6,341.1
		c-0.2-0.2,0.1-0.5,0.7-0.8c0.8-0.4,2-1.4,3.6-3.1c1.4-1.7,2.8-3.1,4-4.2c1.3-1.5,1.7-2.2,1.4-2.2c-0.3-0.4-1.3,0.3-3,2
		c-1.7,1.7-3.5,3.5-5.6,5.6c-2.5,2.6-3.3,3.9-2.4,3.9c0.2,0,0.3-0.1,0.5-0.3C566.3,341.6,566.6,341.3,566.6,341.1z M589.4,315.2
		c0.3-0.7-0.2-0.3-1.7,1.4c-0.6,0.9-1.2,1.8-1.8,2.5c-0.6,0.7-0.9,1.3-1.1,1.7c-0.2,0.7,0.4,0.3,1.7-1.4
		C587.8,317.7,588.7,316.3,589.4,315.2z M593.2,310.1c0.3-0.6,0.7-1.3,1.2-2.1c0.5-0.8,0.9-1.4,1.2-1.8l0.2-0.6v-0.3l0.2-0.3
		c-0.2,0-0.2,0.1-0.2,0.3l-1,1.1c-3.5,4.5-4.7,6.5-3.8,6.1C591.8,312.1,592.5,311.3,593.2,310.1z"/>
</g>
<path class="st1" d="M600.7,295.1l-1.9,2.8l1.2-2.8c1.6-3.5,1.8-5.3,0.7-5.3c-0.6,0-1.4,0.7-2.4,2l-1.7,2.5l1.2-2.8
	c0.6-1.7,0.7-2.7,0.2-3.1c-0.3-0.4-0.9,0-1.8,1c-0.9,1-2.4,3.3-4.6,6.8c-0.9,1.5-1.6,2.4-1.9,2.8c-0.3,0.6-0.6,1-0.9,1.4
	c-0.3,0,0.2-1.1,1.7-3.3c2.5-4.3,4-7.2,4.3-8.7l-5.7,4.4c-0.8,1.1-1.6,2.3-2.5,3.8c-2.8,4.3-5.3,8.3-7.5,12
	c-1.6,2.8-3.8,5.8-6.5,9.1c-2.8,3.3-5.8,6.5-9,9.6c-3.2,3.2-6.5,6-9.9,8.7c-3.3,2.6-6.2,4.7-8.6,6.1c-4.6,2.4-9.2,3.6-13.8,3.7
	c-1.1-0.4-2-0.9-2.6-1.5c-0.5-0.5-1.3-1.7-2.3-3.3l-10.2,7.8c2.3,2.3,4.5,4,6.6,5.1c2.9,1.5,7.1,2.5,12.6,3c1.7,0.2,3.3,0.3,4.8,0.4
	c1.4,0.1,2.3,0.1,2.6,0.1c1.3,0,3.1-0.4,5.5-1.3c2.4-0.8,4.7-1.9,6.9-3.2c1.3-0.9,2.3-1.7,3.2-2.2c0.9-0.6,1.3-0.9,1.3-1.1
	c0.2-0.2,0.3-0.4,0.5-0.6c0.2-0.2,0.6-0.5,1.2-0.8c1.3-0.7,1.9-1.3,1.9-1.7c0-0.4,0.7-1.2,2.1-2.5c1.7-1.1,2.5-1.9,2.1-2.2
	c-0.2-0.2,0.2-0.5,1.2-0.8c1.1-0.9,2.9-2.7,5.5-5.3c1.3-1.3,2.3-2.4,3.2-3.2c0.9-0.8,1.4-1.3,1.5-1.3c-0.2,0,0.2-0.3,1.2-0.8
	c0.3-0.7,0.6-0.9,1-0.6c0.6,0.4,0.7,0.3,0.2-0.3c-0.2-0.4,0.7-1.9,2.6-4.7c0.8-0.9,1.8-2.2,3-3.9c1.2-1.7,2.2-3.2,3-4.5
	c0.8-1.3,1.7-2.8,2.8-4.5c1.1-1.7,2.1-3,2.8-3.9c1.3-1.9,2.6-4.2,4-7.1c1.4-2.9,2.4-5.1,2.8-6.8c0.2-0.2,0.2-0.4,0.2-0.6v-0.3
	C602.5,293.2,601.8,293.8,600.7,295.1z M574.9,333c-1.3,1.1-2.6,2.5-4,4.2c-1.6,1.7-2.8,2.7-3.6,3.1c-0.6,0.4-0.9,0.7-0.7,0.8
	c0,0.2-0.2,0.5-0.7,0.8c-0.2,0.2-0.3,0.3-0.5,0.3c-1,0-0.2-1.3,2.4-3.9c2.1-2,3.9-3.9,5.6-5.6c1.7-1.7,2.7-2.3,3-2
	C576.6,330.8,576.2,331.5,574.9,333z M575,320.4c-1.8,2.3-3.6,4.4-5.3,6.3c-1.3,1.5-2.6,2.8-3.9,4c-1.3,1.2-2.3,2.1-3,2.7
	c-0.3,0.2-0.7,0.6-1.2,1.1l-0.5,0.3c-0.2,0,0.6-0.8,2.1-2.5c2.8-3.3,5.7-6.6,8.7-9.9c2.9-3.2,4.5-5,4.9-5.2c0.2-0.2,0.3-0.3,0.5-0.3
	C577.5,316.9,576.8,318,575,320.4z M589.4,315.2c-0.6,1.1-1.6,2.5-2.8,4.2c-1.3,1.7-1.8,2.1-1.7,1.4c0.2-0.4,0.5-0.9,1.1-1.7
	c0.6-0.7,1.1-1.6,1.8-2.5C589.1,314.9,589.7,314.4,589.4,315.2z M595.8,305.7l-0.2,0.6c-0.3,0.4-0.7,1-1.2,1.8
	c-0.5,0.8-0.9,1.5-1.2,2.1c-0.6,1.1-1.3,2-2.1,2.5c-1,0.4,0.3-1.7,3.8-6.1l1-1.1V305.7z"/>
<path class="st1" d="M297.5,145.9c2.4-0.7,4.8-1.4,7.1-2c2.5-0.7,4.2-1.3,5-1.7c1-0.4,2-0.6,3.1-0.6c0.8,0,0.9,0.5,0.2,1.4
	c-0.3,0.6-1.3,1.1-2.9,1.7c-0.6,0.2-1.6,0.5-2.6,0.9l115.8-3.7c0-0.2-0.1-0.4-0.1-0.6c-0.4-2.2-0.8-3.5-1.3-3.9
	c-0.5-0.6-0.7-1.3-0.7-2.2c0-0.7-0.6-1.6-1.7-2.5c-1-1.1-1.4-1.9-1.4-2.5c0-1.7-1.6-3-4.8-4c-3.2-1-6.8-1.8-10.7-2.3
	c-4-0.5-7.7-0.8-11.3-0.9c-3.6-0.1-5.8-0.1-6.5-0.1c-8.9,0-18.5,0.9-28.8,2.6c-10.3,1.7-20.8,3.9-31.3,6.6
	c-10.6,2.7-20.9,5.8-30.9,9.3c-5,1.7-9.8,3.5-14.4,5.2L297.5,145.9z M326,138.3c0.3-0.4,2.6-0.9,6.9-1.7c4.3-0.8,12.1-2.2,23.3-4.3
	c2.7-0.4,5.4-0.8,8-1.1c2.6-0.4,5-0.7,7.3-1c2.2-0.3,4-0.5,5.5-0.6c1.4-0.1,2.2-0.1,2.4-0.1l-5,1.1c-1.9,0.2-4.4,0.6-7.4,1.1
	c-3,0.6-6.2,1.2-9.6,1.8c-3.4,0.7-6.9,1.4-10.4,2.1c-3.5,0.8-6.6,1.4-9.3,2c-2.7,0.6-5.1,1.1-7.1,1.6c-2.1,0.5-3.3,0.8-3.8,1
	c-0.3,0.2-0.6,0.3-1,0.3c-0.3,0-0.5-0.3-0.5-0.8C325.3,138.7,325.5,138.3,326,138.3z M317.7,141.6c0.3-0.4,0.9-0.9,1.8-1.5
	c0.9-0.6,1.6-1,2.3-1c0.3,0,0.5,0.1,0.5,0.3c0.3,0.4,0.2,0.9-0.3,1.7c-0.6,0.7-1.2,1.1-1.8,1.1c-1.1,0-1.8,0.1-2.1,0.3
	C317.4,142.6,317.4,142.4,317.7,141.6z"/>
<path class="st0" d="M165.3,249.3c0.4-1.4,1.1-2.8,2.2-4.1c1.1-1.3,2.1-1.9,2.9-1.9c0.6,0,1,0.3,1.1,0.9c0.1,0.6,0.2,2.2,0.2,4.7
	c0,2.6,0.1,4.2,0.2,4.8c0.1,0.6,0.4,0.6,0.8,0.2c0.6-0.7,1.2-2,1.8-3.9c0.8-3.1,1.7-4.6,2.7-4.6l0.9,0c1,0.5,1.5,1.2,1.5,2.1
	c0,1.4,0.3,2.1,0.9,2.1l0.6-0.7c0.4-0.7,0.7-1.1,0.9-1.1c0.8,0,2.2,1.2,4.2,3.5c1.8,2.3,3.3,5,4.4,7.9c1.1,2.9,2.2,7.1,3.2,12.5
	c0.6,4,1.2,8,1.7,12c0.5,4,1,8.6,1.4,13.7c0.4,5.2,0.8,11,1.1,17.6c0.3,6.6,0.7,14.3,1.1,23.2l0.7,14.1l-0.1-17.2
	c0-9.6,0.1-14.4,0.6-14.4c0.4,0,0.6,5.2,0.7,15.5c0.2,6.1,0.4,9.9,0.5,11.3c0.1,1.4,0.4,1.9,0.8,1.4c1-0.9,3.8-5.1,8.3-12.4
	c4.5-7.3,9.6-15.9,15.4-25.7c4.6-7.5,9.2-14.9,13.8-22.2c4.6-7.3,9.2-14.7,13.8-22.2c1.6-2.8,3.2-5.5,4.8-7.9
	c1.6-2.5,2.7-4.1,3.3-4.8c1.4-1.6,2.3-2.5,2.7-2.5c0.4,0,0.3,0.6-0.3,1.8c-0.2,0.5-1.1,2.2-2.7,5.1c-1.6,2.9-3.5,6.2-5.7,9.9
	c-2.2,3.6-4.4,7.4-6.6,11.3c-2.2,3.9-4.1,7-5.7,9.3c-1.2,2.1-3.6,6.2-7,12.2c-3.5,6-6.9,12.1-10.3,18.2c-3.6,6.3-7.1,12.4-10.5,18.2
	c-3.4,5.8-5.7,9.6-6.9,11.5c-1,1.9-1.9,3.5-2.7,4.8c-0.8,1.3-1.2,2.1-1.2,2.3c0.8,0,2.6-2.1,5.3-6.2c2.7-4.1,5.6-8.7,8.7-13.8
	c3.1-5.1,5.9-9.9,8.5-14.5c2.6-4.6,4.1-7.2,4.5-7.9c1.8-3.3,3.6-6.5,5.4-9.5c1.8-3.1,3.8-6.5,6-10.2c2.2-3.8,4.8-8.2,7.8-13.2
	c3-5.1,6.6-11.1,10.8-18.2c4-6.4,6.2-9.5,6.6-9.5c1.2,0-0.7,4.5-5.7,13.4c-1.2,2.1-2.7,4.8-4.5,7.9c-1.8,3.2-3.4,6.1-4.8,8.6
	c-1.4,2.6-2.8,5.2-4.2,7.8c-1.4,2.6-2.4,4.5-3,5.6c-0.4,0.7-0.9,1.8-1.5,3.2c-0.2,0.5-0.4,0.9-0.6,1.4c0.2,0,1.6-2.3,4.2-6.9
	c2.6-4.6,5.6-9.9,9-16.1c3.6-6.3,6.7-11.8,9.3-16.2c2.6-4.5,3.9-6.8,3.9-7.1c0.4,0,0.8,0.1,1.2,0.3c0.4,0.5,0.2,1.7-0.7,3.7
	c-0.9,2-2.7,5.3-5.2,10.1l-1.8,4.2c-6.6,13.4-12,24.3-16.3,32.8c-4.3,8.5-8.5,16.6-12.6,24.5c-4.1,7.9-7,13.1-8.8,15.7
	c-3.6,6.6-5.3,9.9-5.1,9.9l0.9-1.1c1-1.2,3.6-5.5,7.8-13.1c4.2-7.5,9.5-17.7,15.9-30.7c9.8-18.6,17-32.3,21.6-41.1
	c4.6-8.8,6.9-13.1,6.9-12.9c0,0.7-2.6,6.3-7.8,16.9c-1.6,2.8-3,5.6-4.3,8.3c-1.3,2.7-2.1,4.6-2.5,5.8c-0.4,0.9-1.5,3-3.1,6.2
	c-1.7,3.2-3.4,6.8-5.2,10.8c-2,3.8-4.5,8.6-7.5,14.5c-3,5.9-5.7,11.2-8.1,15.9c-2.2,4.7-4.6,9.5-7.3,14.3c-2.7,4.8-4.7,8.3-6.1,10.4
	c-3.6,5.6-5.2,8.5-4.8,8.5c0.8,0,2.5-2.1,5-6.2c2.5-4.1,5.1-8.8,7.9-13.9c2.8-5.2,5.4-10,7.8-14.6c2.4-4.6,3.8-7.3,4.2-8.3
	c2.8-5.6,5.2-10.5,7.3-14.6c2.1-4.1,3.3-6.4,3.7-6.9c0.4-0.5,0.4-0.2,0,0.9c-0.4,1.1-2.2,4.8-5.4,11.1c-1.6,3.1-3.4,6.6-5.4,10.8
	c-2,4.1-3.7,7.6-5.1,10.4c-2,4-4.1,7.9-6.3,11.8c-2.2,3.9-4.3,7.4-6.3,10.6c-2,3.2-3.7,5.6-5.1,7.4c-1.4,1.8-2.3,2.5-2.7,2.3
	c-0.4-0.5-1.1,0.1-2.1,1.8c-0.4,0.5-1,1.2-1.8,2.1c-0.8,0.9-1.7,1.9-2.7,2.8c-2,1.6-4,2.5-6,2.5c-0.6,0-1.2-0.1-1.8-0.2
	c-0.6-0.1-1.4-0.3-2.4-0.5c-1.6-0.5-3.7-0.7-6.3-0.7c-3.8,0-7.1-1.1-10-3.3c-2.8-2.2-5.3-5.1-7.3-8.6c-2-3.5-3.6-7.3-4.7-11.4
	c-1.1-4.1-1.9-8-2.3-11.8c-0.2-1.6-0.4-3.8-0.6-6.5c-0.2-2.7-0.5-5.1-0.9-7.2c-0.4-2.1-0.7-5.2-0.9-9.3c-0.2-4.1-0.4-7.9-0.6-11.4
	c-0.6-11.3-1.1-20.3-1.5-27.3c-0.3-6.9-0.5-12.4-0.5-16.5c0-4.1,0.1-7.1,0.3-9C164.6,252.4,164.9,250.7,165.3,249.3z"/>
<path class="st1" d="M160,244c0.4-1.4,1.1-2.8,2.2-4.1c1.1-1.3,2.1-1.9,2.9-1.9c0.6,0,1,0.3,1.1,0.9c0.1,0.6,0.2,2.2,0.2,4.7
	c0,2.6,0.1,4.2,0.2,4.8c0.1,0.6,0.4,0.6,0.8,0.2c0.6-0.7,1.2-2,1.8-3.9c0.8-3.1,1.7-4.6,2.7-4.6l0.9,0c1,0.5,1.5,1.2,1.5,2.1
	c0,1.4,0.3,2.1,0.9,2.1l0.6-0.7c0.4-0.7,0.7-1.1,0.9-1.1c0.8,0,2.2,1.2,4.2,3.5c1.8,2.3,3.3,5,4.4,7.9c1.1,2.9,2.2,7.1,3.2,12.5
	c0.6,4,1.2,8,1.7,12c0.5,4,1,8.6,1.4,13.7c0.4,5.2,0.8,11,1.1,17.6c0.3,6.6,0.7,14.3,1.1,23.2l0.7,14.1l-0.1-17.2
	c0-9.6,0.1-14.4,0.6-14.4c0.4,0,0.6,5.2,0.7,15.5c0.2,6.1,0.4,9.9,0.5,11.3c0.1,1.4,0.4,1.9,0.8,1.4c1-0.9,3.8-5.1,8.3-12.4
	c4.5-7.3,9.6-15.9,15.4-25.7c4.6-7.5,9.2-14.9,13.8-22.2c4.6-7.3,9.2-14.7,13.8-22.2c1.6-2.8,3.2-5.5,4.8-7.9
	c1.6-2.5,2.7-4.1,3.3-4.8c1.4-1.6,2.3-2.5,2.7-2.5c0.4,0,0.3,0.6-0.3,1.8c-0.2,0.5-1.1,2.2-2.7,5.1c-1.6,2.9-3.5,6.2-5.7,9.9
	c-2.2,3.6-4.4,7.4-6.6,11.3c-2.2,3.9-4.1,7-5.7,9.3c-1.2,2.1-3.6,6.2-7,12.2c-3.5,6-6.9,12.1-10.3,18.2c-3.6,6.3-7.1,12.4-10.5,18.2
	c-3.4,5.8-5.7,9.6-6.9,11.5c-1,1.9-1.9,3.5-2.7,4.8c-0.8,1.3-1.2,2.1-1.2,2.3c0.8,0,2.6-2.1,5.3-6.2c2.7-4.1,5.6-8.7,8.7-13.8
	c3.1-5.1,5.9-9.9,8.5-14.5c2.6-4.6,4.1-7.2,4.5-7.9c1.8-3.3,3.6-6.5,5.4-9.5c1.8-3.1,3.8-6.5,6-10.2c2.2-3.8,4.8-8.2,7.8-13.2
	c3-5.1,6.6-11.1,10.8-18.2c4-6.4,6.2-9.5,6.6-9.5c1.2,0-0.7,4.5-5.7,13.4c-1.2,2.1-2.7,4.8-4.5,7.9c-1.8,3.2-3.4,6.1-4.8,8.6
	c-1.4,2.6-2.8,5.2-4.2,7.8c-1.4,2.6-2.4,4.5-3,5.6c-0.4,0.7-0.9,1.8-1.5,3.2c-0.2,0.5-0.4,0.9-0.6,1.4c0.2,0,1.6-2.3,4.2-6.9
	c2.6-4.6,5.6-9.9,9-16.1c3.6-6.3,6.7-11.8,9.3-16.2c2.6-4.5,3.9-6.8,3.9-7.1c0.4,0,0.8,0.1,1.2,0.3c0.4,0.5,0.2,1.7-0.7,3.7
	c-0.9,2-2.7,5.3-5.2,10.1l-1.8,4.2c-6.6,13.4-12,24.3-16.3,32.8c-4.3,8.5-8.5,16.6-12.6,24.5c-4.1,7.9-7,13.1-8.8,15.7
	c-3.6,6.6-5.3,9.9-5.1,9.9l0.9-1.1c1-1.2,3.6-5.5,7.8-13.1c4.2-7.5,9.5-17.7,15.9-30.7c9.8-18.6,17-32.3,21.6-41.1
	c4.6-8.8,6.9-13.1,6.9-12.9c0,0.7-2.6,6.3-7.8,16.9c-1.6,2.8-3,5.6-4.3,8.3c-1.3,2.7-2.1,4.6-2.5,5.8c-0.4,0.9-1.5,3-3.1,6.2
	c-1.7,3.2-3.4,6.8-5.2,10.8c-2,3.8-4.5,8.6-7.5,14.5c-3,5.9-5.7,11.2-8.1,15.9c-2.2,4.7-4.6,9.5-7.3,14.3c-2.7,4.8-4.7,8.3-6.1,10.4
	c-3.6,5.6-5.2,8.5-4.8,8.5c0.8,0,2.5-2.1,5-6.2c2.5-4.1,5.1-8.8,7.9-13.9c2.8-5.2,5.4-10,7.8-14.6c2.4-4.6,3.8-7.3,4.2-8.3
	c2.8-5.6,5.2-10.5,7.3-14.6c2.1-4.1,3.3-6.4,3.7-6.9c0.4-0.5,0.4-0.2,0,0.9c-0.4,1.1-2.2,4.8-5.4,11.1c-1.6,3.1-3.4,6.6-5.4,10.8
	c-2,4.1-3.7,7.6-5.1,10.4c-2,4-4.1,7.9-6.3,11.8c-2.2,3.9-4.3,7.4-6.3,10.6c-2,3.2-3.7,5.6-5.1,7.4c-1.4,1.8-2.3,2.5-2.7,2.3
	c-0.4-0.5-1.1,0.1-2.1,1.8c-0.4,0.5-1,1.2-1.8,2.1c-0.8,0.9-1.7,1.9-2.7,2.8c-2,1.6-4,2.5-6,2.5c-0.6,0-1.2-0.1-1.8-0.2
	c-0.6-0.1-1.4-0.3-2.4-0.5c-1.6-0.5-3.7-0.7-6.3-0.7c-3.8,0-7.1-1.1-10-3.3c-2.8-2.2-5.3-5.1-7.3-8.6c-2-3.5-3.6-7.3-4.7-11.4
	c-1.1-4.1-1.9-8-2.3-11.8c-0.2-1.6-0.4-3.8-0.6-6.5c-0.2-2.7-0.5-5.1-0.9-7.2c-0.4-2.1-0.7-5.2-0.9-9.3c-0.2-4.1-0.4-7.9-0.6-11.4
	c-0.6-11.3-1.1-20.3-1.5-27.3c-0.3-6.9-0.5-12.4-0.5-16.5c0-4.1,0.1-7.1,0.3-9C159.3,247.1,159.6,245.4,160,244z M192.7,284.4
	c0.4,0.7,0.4,1.4,0,2.1c0,0.2-0.1,0.2-0.2,0c-0.1-0.2-0.2-0.6-0.2-1.1c0-0.5,0-0.8,0.1-1.1C192.7,284.1,192.7,284.1,192.7,284.4z
	 M192.7,287.9c0.2,0.2,0.5,1.5,0.8,3.9c0.3,2.3,0.6,4.8,0.9,7.4c0.3,2.6,0.5,5,0.6,7.2c0.1,2.2,0.1,3.5-0.1,3.7
	c-0.2,0.2-0.5-0.5-0.9-2.1c0-0.7-0.1-1.9-0.2-3.7c-0.1-1.8-0.3-3.6-0.5-5.5c-0.2-1.9-0.4-3.6-0.5-5.3c-0.1-1.6-0.2-2.8-0.2-3.5
	C192.5,288.1,192.5,287.4,192.7,287.9z M223,323.7c0.4-0.5,1.4-2,2.9-4.6c1.5-2.6,3.1-5.6,4.9-9.2c4-7.3,6.3-11.5,6.9-12.7
	c0.6-1.2,0.7-1.5,0.3-1.1c-0.4,0.2-1.3,1.6-2.7,4.1c-1.4,2.5-3,5.3-4.6,8.5c-1.7,3.2-3.3,6.2-4.8,9
	C224.4,320.5,223.4,322.5,223,323.7z M248.6,295.8l1.2-1.4l0,0.4c0,0.5-0.1,0.8-0.3,1.1l-1.2,1.4v-0.4c0-0.2,0-0.4,0.1-0.5
	C248.5,296.2,248.6,296,248.6,295.8z M250.7,291.9c0.2-0.2,0.3-0.4,0.3-0.5c0-0.1,0.1-0.3,0.3-0.5l0.3-0.4c0.2,0,0.1,0.5-0.3,1.4
	c0,0.2-0.2,0.6-0.6,1.1l-0.3,0.4C250.2,293.3,250.3,292.8,250.7,291.9z"/>
</svg>
