<svg xmlns="http://www.w3.org/2000/svg" viewBox="0 0 2294.78 1960.97"><defs><style>.cls-1{fill:#fff;}.cls-2{fill:#a9d7f3;}.cls-3{fill:#f6a4b5;}.cls-4{fill:#6559a6;}.cls-5{fill:#8376b6;}.cls-6{fill:#aeb6dd;}.cls-7{fill:#f05b80;}.cls-8{fill:#38405e;}.cls-9{fill:#61657b;}.cls-10{fill:#585d72;}.cls-11{fill:#958cc3;}.cls-12{fill:#fbd0d6;}.cls-13{fill:#d4bfd2;}.cls-14{fill:#a979ac;}.cls-15{fill:#c597bb;}.cls-16{fill:#ba8ab5;}</style></defs><g id="Capa_1" data-name="Capa 1"><polyline class="cls-1" points="2294.78 1960.97 0 1960.97 0 0 2294.78 0 2294.78 1960.97"/><path class="cls-2" d="M424.16,281.34c0-31.29-26.63-56.65-59.47-56.65s-59.47,25.36-59.47,56.65S331.85,338,364.69,338,424.16,312.62,424.16,281.34Z" transform="translate(0 0.01)"/><path class="cls-2" d="M2030.73,644.33c49.06,5.9,90.29-33.4,84.12-80.13-4.22-31.82-31.2-57.53-64.62-61.54-49-5.88-90.29,33.39-84.12,80.12C1970.33,614.61,1997.31,640.32,2030.73,644.33Z" transform="translate(0 0.01)"/><path class="cls-2" d="M1972.51,1276.76H1757c-38.22,0-68.33-29.76-68.33-78.17,0-46.06,35.37-78.19,73.61-78.19h81c86.8,0,143.08-67.21,143.08-156.35,0-98.91-65.07-156.34-143.08-156.34h-105.6c-38.22,0-69.21-35-69.21-78.16s31-78.19,69.21-78.19h125.68c38.23,0,69.22-35,69.22-78.17s-31-78.16-69.22-78.16H1632.16c-38.22,0-69.21-35-69.21-78.18s31-78.17,69.21-78.17h58c38.22,0,69.21-27.65,69.21-61.75s-31-61.74-69.21-61.74h-1159c-38.23,0-69.21,27.65-69.21,61.74s31,61.75,69.21,61.75H703.54c38.24,0,69.23,35,69.23,78.17S741.78,495,703.54,495H258.83c-38.22,0-69.21,35-69.21,78.16s31,78.17,69.21,78.17H392.68c38.22,0,69.22,35,69.22,78.19s-31,78.16-69.22,78.16H258.83c-57.64,0-126.22,57.43-126.22,156.34,0,89.14,65.94,156.35,126.22,156.35H419.06c61.71,0,118.41,64.23,118.41,156.36,0,96.83-44.38,156.34-113.14,156.34H258.83c-57.64,0-120.94,57.43-120.94,156.34,0,89.13,60.66,156.36,120.94,156.35H1972.51c73.62,0,189.66-40.83,189.66-234.52,0-184.23-102-234.51-189.66-234.51" transform="translate(0 0.01)"/><path class="cls-3" d="M1529.18,620.43c-50.3-184.16-230.32-194.2-370.09-96.29-21-77.71-77-145.27-149.37-180.47C952.3,315.74,884,308.22,823.59,328.78,733.25,359.52,674,444.77,627.2,527.91,581,485.48,510.64,475.28,450.68,493.73c-84,25.84-150.88,98.81-174.39,184C255,754.92,268,885.16,332.5,940.34c30.83,26.38,66.82,30,105.55,31.94,82.54,4,561.58,8.65,784.1,1,59.89-2.05,121.73-4.55,175.89-30.23C1507.35,891.25,1561.05,737.15,1529.18,620.43Z" transform="translate(0 0.01)"/><path class="cls-4" d="M1132.36,1513.17c-.73-3.59-2.07-6.77-4.43-8.76-3-2.54-6.91-2.64-10.57-2.67-15-.09-101.53-.06-116.54,0-15.5.08-30.7-1.74-46.19-.2-3.18.31-6.51.8-9,3.18-3.49,3.27-4.51,9.18-5,14.59-.84,10.24-.06,20.51-.1,30.76s-.1,20.53,0,30.79c.11,36,.27,17.28.48,53.31.06,11.64.09,23.29.15,34.93.07,10.71-.64,22.28.58,32.85.4,3.54,1.51,7.07,3.61,9.52a14.66,14.66,0,0,0,6.25,4c8.6,3.21,18.93,2.41,27.79,2.82,13.33.63,26.69.92,40,1,11.12.11,93.86.36,104.88-1.87,11.22-2.26,9.13-21.21,9.38-31.78.34-14.33,0-34.57,0-48.9,0-22.9,0-50.57,0-68.9,0-13.48-.41-26.83-.33-40.3C1133.26,1523.41,1133.33,1518,1132.36,1513.17Z" transform="translate(0 0.01)"/><path class="cls-5" d="M1251.15,1696.09l-.16-.19c-1.63-1.91-4.15-2.07-6.44-2.1-9.38-.15-18.64.32-28,.32-33.76,0-228.38,0-262.14,0-34.85,0-69-.41-103.9,0-5.15,0-10.31.09-15.46.38-4.22.24-9.62-1-12.88,3.09s-2.15,10.55-2.26,15.63q-.21,9.91.08,19.86c.07,2.57.24,5.31,1.55,7.34,2.27,3.51,6.67,3.92,9.87,3.87,4.31-.07,7.87-.24,12.18-.07,19.33.75,42.57.56,62.5.66q45,.23,90,.25h41.1q34.93,0,69.87,0,36.15,0,72.3-.11c16.12,0,32.25,0,48.37-.25a144.82,144.82,0,0,0,15.76-.69c2.45-.32,5.4-.37,7.26-2.31,4.28-4.51,3.47-13.25,3.13-22.28-.25-6.36-.58-11.82-1.11-18.17A9.82,9.82,0,0,0,1251.15,1696.09Z" transform="translate(0 0.01)"/><path class="cls-1" d="M1565.36,1436.44c-1.43,37.37,10.38,104.35-52.68,112.37-61.89,7.87-526.75,7-589.26,6.58-75-.45-149.95-1.49-224.86-3.7-49.79-1.47-107.83,1.37-156.12-10-12.72-3-25.43-7.06-35.11-14.21-11.76-8.66-18-21.14-20.31-33.67-5.16-28.25-4.17-58.53-3.53-88,.22-9.51.4-18.9.33-28.12-.39-41.17-.47-82.32-.85-123.5-1.22-127.4-2.1-61-2.74-188.44-.19-36.31.21-72.61.34-108.88s-4.17-72.58.5-108.74c2.47-19.14,8.24-40,27.86-51.6,14.24-8.42,33-10.11,50.81-11.23,20.09-1.25,40.11-1.88,60.09-2.08,46.15-.55,92.06,1.1,138.21,2.08l.59,0c20.14.42,40.33.71,60.6.65,84.36-.26,570.41-.39,654.73,0,20.53.06,42.35.46,59.33,9.43,13.37,7,20.77,18.31,24.9,30.94,5.48,16.92,5.06,36.25,4.92,51.12-.47,47.61,1.6,94.8,1.77,142.48.26,64.82.48,162.64.4,243.6-.07,43.06,1.44,101.24.68,148.82-.11,8.4-.32,16.45-.6,24.06" transform="translate(0 0.01)"/><path class="cls-4" d="M1566,1412.38c-87.79,6-586.08,5.27-654.42,5-84-.38-168-1.22-251.91-3-55.76-1.19-120.8,1.13-174.85-8.2l-1.29-.25c.22-9.51.4-18.9.33-28.12-.39-41.17-.47-82.32-.85-123.5-1.22-127.4-2.1-61-2.74-188.44-.19-36.31.21-72.61.34-108.88s-4.17-72.58.5-108.74c2.47-19.14,8.24-40,27.86-51.6,14.24-8.42,33-10.11,50.81-11.23,20.09-1.25,40.11-1.88,60.09-2.08,46,.41,91.95,1.66,138.21,2.08l.59,0c20.14.42,40.33.71,60.6.65,84.36-.26,570.41-.39,654.73,0,20.53.06,42.35.46,59.33,9.43,13.37,7,20.77,18.31,24.9,30.94,5.48,16.92,5.06,36.25,4.92,51.12-.47,47.61,1.6,94.8,1.77,142.48.26,64.82.48,162.64.4,243.6-.07,43.06,1.44,101.24.68,148.82" transform="translate(0 0.01)"/><path class="cls-1" d="M1522.9,848.51c-3.83-9.24-10.77-17.49-23.22-22.61-15.88-6.56-36.28-6.85-55.42-6.92-78.79-.24-532.84-.16-611.63,0-29.35.07-58.5-.49-87.58-1.06-51.52-1-102.86-2-154.83.54-16.63.82-34.16,2.06-47.49,8.22-18.31,8.46-23.7,23.73-26,37.71-4.36,26.43-.31,53-.44,79.47s-.53,53.05-.36,79.58c.62,93.11,1.46,44.62,2.57,137.74.36,30.08.43,60.17.78,90.25.33,27.68-3.36,57.59,3,84.89,2.14,9.15,8,18.27,19,24.6,9,5.21,20.91,8.19,32.81,10.38,45.1,8.29,99.31,6.23,145.8,7.3,70,1.61,140,2.37,210.09,2.71,58.37.28,492.62.92,550.44-4.83,58.91-5.86,47.9-54.81,49.21-82.13,1.79-37-.13-89.31-.08-126.36.09-59.16-.11-130.66-.33-178-.19-34.84-2.11-69.32-1.69-104.12.14-10.87.53-25-4.61-37.36" transform="translate(0 0.01)"/><path class="cls-6" d="M1519,695.49c-3.25-9.48-9.14-17.94-19.69-23.21-13.46-6.72-30.75-7-47-7.07-66.8-.26-451.71-.17-518.5,0-69,.2-136.56-4.63-205.49-.53-14.1.84-29,2.12-40.26,8.43-15.52,8.68-20.09,24.34-22.05,38.69-3.69,27.12-.26,54.35-.38,81.54s-.43,54.43-.3,81.64c.53,95.53,1.24,45.79,2.19,141.32.3,30.87.35,61.74.66,92.61.33,33.14-13.52,103.31,22.62,122.08,27.3,14.17,68.87,10.16,98.71,11,75.55,2,151.23.19,226.81.19,49.49.28,417.6,1,466.61-5,49.94-6,40.61-56.24,41.72-84.27,1.52-38-.1-91.63-.06-129.63.08-60.71-.09-134.06-.28-182.67-.16-35.75-1.78-71.13-1.44-106.84C1523,722.67,1523.38,708.16,1519,695.49Z" transform="translate(0 0.01)"/><path class="cls-7" d="M1523,724c-.51-5.82-2-22.9-3.94-28.47-3.25-9.48-9.14-17.94-19.69-23.21-13.46-6.72-30.75-7-47-7.07-66.8-.26-451.71-.17-518.5,0-69,.2-136.56-4.63-205.49-.53-14.1.84-29,2.12-40.26,8.43-15.52,8.68-20.09,24.34-22.05,38.69-.84,6.21-1.29,12.42-1.51,18.64C724.53,730.26,1297,728.11,1523,724Z" transform="translate(0 0.01)"/><path class="cls-3" d="M1356.94,687c6.72-6.21,18.77-4.06,21.28,6a14.47,14.47,0,0,1-5.63,14.9,13,13,0,0,1-15.28-.48,13.82,13.82,0,0,1-3.81-15.19A13.45,13.45,0,0,1,1356.94,687Z" transform="translate(0 0.01)"/><path class="cls-3" d="M1407.43,687c6.72-6.21,18.77-4.06,21.29,6a14.49,14.49,0,0,1-5.64,14.9,13,13,0,0,1-15.28-.48,13.84,13.84,0,0,1-3.82-15.19A13.7,13.7,0,0,1,1407.43,687Z" transform="translate(0 0.01)"/><path class="cls-3" d="M1457.93,687c6.71-6.21,18.76-4.06,21.28,6a14.51,14.51,0,0,1-5.64,14.9,13,13,0,0,1-15.28-.48,13.84,13.84,0,0,1-3.82-15.19A13.6,13.6,0,0,1,1457.93,687Z" transform="translate(0 0.01)"/><path class="cls-1" d="M960.35,895.28l5.38,2.63c25.06-51.35,80.88-82.69,136.84-82.66,41.36,0,82.5,16.88,112,55.22,19.5,25.34,29.44,57.5,29.42,89.68,0,29.34-8.24,58.59-24.73,82.63-27,39.51-75.4,63.3-123.31,63.26a138.34,138.34,0,0,1-39.11-5.54c-29.31-8.64-55.23-27.46-74-51.84s-30.28-54.26-31.11-84.81c0-1.43-.06-2.84-.06-4.24a139.05,139.05,0,0,1,14-61.7l-5.38-2.63L955,892.65a151.13,151.13,0,0,0-15.23,67c0,1.52,0,3,.07,4.57.91,33.35,13.42,65.54,33.58,91.77s48.08,46.58,80.09,56a150.3,150.3,0,0,0,42.49,6c51.79,0,103.57-25.37,133.18-68.47,18-26.24,26.83-57.83,26.84-89.39,0-34.61-10.64-69.3-31.91-97-31.81-41.4-76.94-59.94-121.52-59.89-60.31,0-120.16,33.45-147.59,89.37Z" transform="translate(0 0.01)"/><path class="cls-1" d="M1207.33,958c-1.41-4.79-5.64-7.26-9.49-9.25-46.84-24.12-125.62-70.86-158.16-82.17-5.82-2-11.75,3-12.38,10.38-3,35.31-5.26,117-6.27,159.77-.3,12.9,10.2,22,20,17.19,44.55-22.06,110.88-56.78,156.88-82.8C1204.64,967.28,1209.81,966.5,1207.33,958Z" transform="translate(0 0.01)"/><path class="cls-8" d="M1488.54,1179.89c0-1.32-.19-3.4-4.66-4.23a28.43,28.43,0,0,0-4.24-.36c-6.77-.17-13.58-.14-20.36-.12-41.44.14-82.43.25-123.87.24l-143,0-97.85,0-79.63,0H836.15q-59.56,0-119.12,0c-2.32,0-4.21.75-4.2,1.67.07,3.29.28,6.59.45,9.89.05.9,1.92,1.62,4.19,1.62h11.19c65.68.1,662.14.15,713.68-.13,7,0,14,.08,21,.18,6.15,0,12.3,0,18.45-.07,5,0,6.86-1.34,7.43-3C1489.94,1183.5,1488.58,1181,1488.54,1179.89Z" transform="translate(0 0.01)"/><path class="cls-9" d="M783.65,1170.17c8-7.4,22.39-4.85,25.39,7.11a17.25,17.25,0,0,1-6.72,17.78,15.48,15.48,0,0,1-18.23-.57c-5-4.12-7-11.8-4.55-18.13A16.23,16.23,0,0,1,783.65,1170.17Z" transform="translate(0 0.01)"/><path class="cls-5" d="M1884.7,1138.7c-2.55-5-7.17-9.36-15.45-12.11-10.57-3.51-24.13-3.67-36.87-3.69-52.41-.14-354.46-.1-406.88,0-54.09.1-107.14-2.41-161.24-.28-11.06.44-22.72,1.11-31.59,4.4-12.18,4.53-15.76,12.71-17.3,20.19-2.89,14.16-.21,28.37-.3,42.55s1.75,58,2,74.1c.26,17.29-3,54.86,17.76,63.7s54,5.3,77.45,5.72c59.29,1.07,118.66.1,178,.1,38.84.15,327.7.5,366.15-2.58,39.19-3.14,31.87-29.35,32.75-44,1.19-19.82-.09-47.82,0-67.64,0-31.68-1.64-41.87-1.35-60.5C1887.85,1152.88,1888.12,1145.31,1884.7,1138.7Z" transform="translate(0 0.01)"/><path class="cls-1" d="M1271.66,1198.23c20.64-42.17,84.47-55.27,117.08-12.87,17.62,22.92,18.56,57.25,2.22,81.09s-48.71,35.33-76.43,27.15-48.65-35.4-49.45-64.29A65.85,65.85,0,0,1,1271.66,1198.23Z" transform="translate(0 0.01)"/><path class="cls-5" d="M1383.31,1226.57c-.63-2.17-2.55-3.29-4.28-4.18-21.18-10.91-56.79-32-71.51-37.15-2.63-.91-5.31,1.37-5.59,4.69-1.37,16-2.39,52.9-2.83,72.23-.15,5.83,4.6,10,9,7.77,20.14-10,50.13-25.67,70.93-37.43C1382.1,1230.79,1384.45,1230.43,1383.31,1226.57Z" transform="translate(0 0.01)"/><path class="cls-6" d="M1828.73,1171.48c0-1.77-.09-4.54-2.29-5.65a5.48,5.48,0,0,0-2.08-.49c-3.34-.23-6.7-.2-10-.17-20.4.21-40.58.34-61,.33l-70.37,0-48.16,0-39.2,0h-88q-29.33,0-58.63,0a2.15,2.15,0,0,0-2.06,2.24c0,4.4.13,8.81.21,13.21a2.13,2.13,0,0,0,2.06,2.16l5.51,0c32.33.12,325.92.19,351.29-.18,3.46,0,6.89.11,10.34.25,3,0,6.05-.06,9.08-.11,2.43,0,3.36-1.79,3.65-4C1829.42,1176.3,1828.75,1172.94,1828.73,1171.48Z" transform="translate(0 0.01)"/><path class="cls-6" d="M1828.73,1225.21c0-1.78-.09-4.55-2.29-5.66a5.47,5.47,0,0,0-2.08-.48c-3.34-.23-6.7-.2-10-.17-20.4.2-40.58.34-61,.33l-70.37,0-48.16,0-39.2,0h-88q-29.33,0-58.63,0a2.14,2.14,0,0,0-2.06,2.23c0,4.41.13,8.81.21,13.22a2.13,2.13,0,0,0,2.06,2.16h5.51c32.33.13,325.92.19,351.29-.17,3.46,0,6.89.11,10.34.24,3,0,6.05-.06,9.08-.1,2.43,0,3.36-1.79,3.65-4C1829.42,1230,1828.75,1226.66,1828.73,1225.21Z" transform="translate(0 0.01)"/><path class="cls-6" d="M1671.36,1278.93c0-1.77-.06-4.54-1.35-5.65l-1.23-.48a42.93,42.93,0,0,0-5.89-.17c-12,.2-23.86.34-35.84.32q-20.68,0-41.37,0l-28.31,0-23,0h-51.74q-17.22,0-34.47,0c-.66,0-1.21,1-1.2,2.24,0,4.4.07,8.81.13,13.21,0,1.21.54,2.17,1.21,2.17h3.24c19,.12,191.58.19,206.48-.17,2,0,4.06.1,6.08.24,1.77,0,3.56-.06,5.34-.11,1.42,0,2-1.79,2.14-4A71.84,71.84,0,0,0,1671.36,1278.93Z" transform="translate(0 0.01)"/><path class="cls-9" d="M1814.2,798.74c-24.45,2.94-178.39,3.24-251.58,3.12-16.92,0-29.53-.07-35.24-.09-46.44,0-93,1.13-139.42-.09-3.86-.11-8-.08-12.34-.06-16.32.09-35.06.18-48.32-6.71-22.22-11.52-13.7-54.67-13.93-75-.17-19-.21-38-.37-56.95-.61-58.72-1-28.13-1.36-86.84-.08-16.73.12-33.46.19-50.19s-2-33.46.24-50.13c1.2-8.83,4-18.47,13.55-23.79,7-3.86,16.07-4.68,24.72-5.18,27.09-1.6,53.86-1,80.71-.33,15.15.35,30.33.71,45.6.67,41.06-.13,277.66-.19,318.72,0,10,.05,20.63.24,28.87,4.38a23.79,23.79,0,0,1,12.13,14.23c2.66,7.82,2.46,16.73,2.4,23.59-.16,17.11.38,34.11.68,51.19q.13,7.25.18,14.46c.12,29.87.25,75,.18,112.29,0,23.37,1,56.35,0,79.69-.69,17.24,5.06,48.09-25.64,51.8" transform="translate(0 0.01)"/><path class="cls-9" d="M1453.09,823.72a184.17,184.17,0,0,1-44.52,35c-6.21,3.49-53.33,27.17-57,17.86-.55-1.37,0-2.9.53-4.26a191.58,191.58,0,0,0,11.38-45.21c1.48-11.78,1.79-23.82,3.13-35.66.25-2,.52-4.18,1.81-5.77s3.35-2.35,5.33-3c14.18-4.33,98-19.38,101.47,3.33a11.74,11.74,0,0,1-.62,5.14c-2.53,8.56-7.71,16.08-13.3,23Q1457.39,819.12,1453.09,823.72Z" transform="translate(0 0.01)"/><path class="cls-10" d="M1759.63,540.5c-67,0-132.4,0-152.23.1-10,0-20.61.21-28.87,4.34a23.8,23.8,0,0,0-12.13,14.27c-2.66,7.78-2.45,16.7-2.38,23.56.23,21.94-.79,43.69-.88,65.65-.12,29.89-.2,75-.17,112.29,0,12.06-.24,26.63-.35,41.15l26.75,0c78.69,0,203.06-.53,224.83-3.14,23.62-2.85,25.66-21.78,25.66-38.21,0-3.42-.08-6.73-.08-9.76,0-1.34,0-2.62.06-3.83.3-7.48.4-15.94.4-24.76,0-18.51-.44-38.58-.43-54.38v-.55c0-7.58,0-15.48,0-23.51,0-31.5-.1-65-.2-88.78q0-7.22-.18-14.46h-79.82" transform="translate(0 0.01)"/><path class="cls-8" d="M1599.52,587.24A23.82,23.82,0,0,1,1611.63,573c8.27-4.13,18.9-4.31,28.88-4.35,41-.16,277.65-.11,318.7,0,42.38.12,83.94-2.84,126.32-.32,8.66.51,17.79,1.3,24.74,5.17,9.55,5.34,12.35,15,13.55,23.79,2.27,16.67.16,33.41.24,50.12s.27,33.46.17,50.18c-.31,58.72-.75,28.15-1.33,86.87-.18,19-.23,37.95-.41,56.93-.2,20.37,8.32,63.5-13.9,75-16.79,8.71-42.33,6.25-60.68,6.74-46.44,1.26-93,.12-139.42.12-30.41.17-256.69.58-286.82-3-30.69-3.7-25-34.57-25.65-51.8-.92-23.35.07-56.33,0-79.69,0-37.31,0-82.4.17-112.28.1-22,1.1-43.73.88-65.67C1597.05,604,1596.84,595,1599.52,587.24Z" transform="translate(0 0.01)"/><path class="cls-8" d="M1982.79,945.22a184.45,184.45,0,0,0,44.51,35c6.22,3.5,53.34,27.17,57,17.86.53-1.37,0-2.89-.54-4.26a191.58,191.58,0,0,1-11.38-45.21c-1.48-11.78-1.79-23.82-3.13-35.66-.24-2-.52-4.18-1.8-5.77s-3.36-2.35-5.35-2.95c-14.17-4.33-98-19.4-101.46,3.32a11.6,11.6,0,0,0,.63,5.14c2.53,8.56,7.69,16.08,13.3,23Q1978.51,940.62,1982.79,945.22Z" transform="translate(0 0.01)"/><path class="cls-1" d="M1686.27,716.81c19.7-17.71,55.57-11.07,63.41,18,4.23,15.72-2.63,33.89-16.19,42.91s-32.78,8.2-45.38-1.94-17.64-28.82-11.89-44.12A37.63,37.63,0,0,1,1686.27,716.81Z" transform="translate(0 0.01)"/><path class="cls-1" d="M1839.58,716.81c19.7-17.71,55.57-11.07,63.4,18,4.24,15.72-2.62,33.89-16.18,42.91s-32.78,8.2-45.4-1.94-17.63-28.82-11.87-44.12A37.73,37.73,0,0,1,1839.58,716.81Z" transform="translate(0 0.01)"/><path class="cls-1" d="M1992.88,716.81c19.7-17.71,55.58-11.07,63.41,18,4.23,15.72-2.63,33.89-16.19,42.91s-32.78,8.2-45.39-1.94-17.64-28.82-11.88-44.12A37.73,37.73,0,0,1,1992.88,716.81Z" transform="translate(0 0.01)"/><path class="cls-5" d="M178,1564.13c15.29,39.3,43.62,73.84,73,106.81,13.92,15.65,29.12,31.72,50.38,39.26,4.34-70.48.5-141.09-8.06-211.28l-10.48-15.31c-10.92-12.4-28.54-20.31-46.7-21s-36.49,6-48.59,17.55C164.52,1502.19,167.1,1536.16,178,1564.13Zm40.6-54.15c8.29-7.69,20.85-12.09,33.29-11.66s24.5,5.69,32,13.92l7.19,10.18c5.86,46.65,8.49,93.57,5.53,140.41-14.57-5-25-15.69-34.52-26.08-20.11-21.92-39.52-44.88-50-71C204.61,1547.17,202.84,1524.6,218.58,1510Z" transform="translate(0 0.01)"/><path class="cls-5" d="M273.52,1428.25l331.93,3.19c-8,86-21.4,294.24-26,310.53-3.7,13.22-13.9,18-26.84,22.62a344.28,344.28,0,0,1-102.3,19.89c-24.57,1-49.17,2.19-73.75.75-23.43-1.38-62.59-1-75.5-25.1-4.52-8.42-5.92-18.11-7.11-27.6-6.73-53.74-9.43-108.18-12.9-162.23-3-47.26-7.55-142-7.57-142" transform="translate(0 0.01)"/><path class="cls-11" d="M588.72,1417.07c8.48,3.23,18.17,8.28,16.6,15.45-1.76,8-14.3,9-20.51,10.4q-14.44,3.15-29.12,5.21c-26.61,3.72-53.39,3.38-80.14,5-27.26,1.69-54.56,3.25-81.89,3a478.86,478.86,0,0,1-57.28-3.58c-16.66-2.15-35.86-3.71-51-11.23-8-3.95-18.54-12.85-6.47-18.5,9.73-4.54,21.7-6.61,32.08-9.17a434.92,434.92,0,0,1,67.29-11,715.83,715.83,0,0,1,104.07-.89c19.89,1.22,39.8,2.12,59.63,4.15a164.9,164.9,0,0,1,36.92,7.78c2.18.74,5.89,1.85,9.83,3.36" transform="translate(0 0.01)"/><path class="cls-5" d="M575.68,1419.09c7.71,2,16.49,5.23,15,9.94-1.68,5.23-13.12,6-18.79,7q-13.22,2.22-26.62,3.71c-24.33,2.72-48.73,2.77-73.15,4.12-24.88,1.39-49.79,2.69-74.71,2.83-17.45.1-34.9-.36-52.19-1.75-15.17-1.23-32.68-2.06-46.43-6.81-7.22-2.5-16.76-8.22-5.68-12,8.9-3.06,19.84-4.53,29.34-6.32a544.18,544.18,0,0,1,61.49-7.9,910.88,910.88,0,0,1,94.91-1.67c18.11.6,36.28,1,54.34,2.1a202.16,202.16,0,0,1,33.6,4.7c2,.47,5.34,1.16,8.92,2.09" transform="translate(0 0.01)"/><path class="cls-8" d="M431,1426c46.94.67,95.17,2.27,141.68,9.91l-.77.12q-13.22,2.22-26.62,3.71c-24.33,2.72-48.73,2.77-73.15,4.12-24.88,1.39-49.79,2.69-74.71,2.83-17.45.1-34.9-.36-52.19-1.75-15.17-1.23-32.68-2.06-46.43-6.81a38.22,38.22,0,0,1-4.93-2.13A806.64,806.64,0,0,1,431,1426" transform="translate(0 0.01)"/><path class="cls-12" d="M400.89,1120.4h-29.6a180.06,180.06,0,0,0-9.69,49.41c-1.54,33.34,13.12,62.34,29.49,90.85,14.67,25.51,31.61,38.41,38.83,66.92,5.42,21.37,2.72,48.64-6,72.83q5.79-.09,11.56-.09,13.32,0,26.61.48c3.57-2.47,6.58-4.73,8.85-6.56a148.91,148.91,0,0,0,12.86-11.64v-1.42c0-1.15,0-2.31,0-3.46-.36-38-.46-76-.77-114-8.41-7.59-17.67-14.94-26.58-22.82-34.11-30.16-48.76-74.47-55.58-120.52" transform="translate(0 0.01)"/><path class="cls-13" d="M395.73,1065.24c-9.35,18.2-18.12,36.31-24.44,55.16h29.6c-2.71-18.37-4.19-37-5.16-55.16" transform="translate(0 0.01)"/><path class="cls-14" d="M483.05,1263.74c.31,38,.41,76,.77,114,0,1.15,0,2.31,0,3.46v1.42c12.07-12.36,21.76-27,26.43-43.55,7.73-27.35-.12-46.06-14.07-62.13a154.19,154.19,0,0,0-13.15-13.18" transform="translate(0 0.01)"/><path class="cls-15" d="M435.52,1400.32q-5.77,0-11.56.09-1.75,4.92-3.85,9.65,13.33-.39,26.66-.39h1.15c5.29-3,10.12-6.07,14.21-8.88q-13.31-.48-26.61-.48" transform="translate(0 0.01)"/><path class="cls-16" d="M446.77,1409.67q-13.32,0-26.66.39a131.13,131.13,0,0,1-6.78,13.27c11.93-2.31,24.16-7.78,34.59-13.65h-1.15" transform="translate(0 0.01)"/></g></svg>